<?xml version="1.0" encoding="UTF-8"?>
<svg width="409px" height="60px" viewBox="0 0 409 60" version="1.1" xmlns="http://www.w3.org/2000/svg" xmlns:xlink="http://www.w3.org/1999/xlink">
    <!-- Generator: Sketch 57.1 (83088) - https://sketch.com -->
    <title>Group 9</title>
    <desc>Created with Sketch.</desc>
    <defs>
        <polygon id="path-1" points="0 0.00187179653 58.8212711 0.00187179653 58.8212711 59.4280274 0 59.4280274"></polygon>
    </defs>
    <g id="Page-1" stroke="none" stroke-width="1" fill="none" fill-rule="evenodd">
        <g id="Home-" transform="translate(-76.000000, -3185.000000)">
            <g id="Group-9" transform="translate(76.000000, 3185.000000)">
                <g id="Group-3">
                    <mask id="mask-2" fill="white">
                        <use xlink:href="#path-1"></use>
                    </mask>
                    <g id="Clip-2"></g>
                    <path d="M58.3053096,31.4365664 C60.7571645,28.3615274 53.7476767,25.7807558 52.4012659,24.0580672 C50.1868026,21.2258136 49.5504215,17.1064354 50.256161,13.6690303 C50.8796715,10.635301 51.5317834,7.90161091 47.4081767,8.59300549 C43.7386173,9.20830318 40.8984984,9.56777038 37.5535649,7.63563417 C35.7016243,6.56592935 34.3201767,5.38461576 33.1439442,3.54162162 C32.6305491,2.73644408 32.1135788,1.06303728 31.4250002,0.551376305 C28.1601505,-1.87430258 26.3661278,4.42434552 24.5349232,5.98179515 C21.7505771,8.35022018 17.2687379,9.2380172 13.814404,8.4966161 C10.8555893,7.86175064 8.01904563,6.92249762 8.60394423,11.2121879 C9.05656136,14.527838 9.74227989,17.5463479 8.27073793,20.8018452 C7.68226416,22.1041891 6.55250891,23.6225031 5.52428863,24.5603067 C4.24652115,25.7264009 1.90835682,26.1271778 0.810778144,27.3621216 C-1.78408374,30.2813432 2.52900717,31.6387667 4.24866626,33.1425861 C6.56609458,35.1689376 8.07481835,38.3621079 8.57534283,41.4212028 C9.00507884,44.049082 5.70948269,50.7245908 9.77374143,51.3804735 C10.4058323,51.481936 11.9145561,50.8448964 12.6531872,50.6818316 C14.9463044,50.1737943 17.1135753,50.2252503 19.3423393,51.0383999 C22.5678621,52.2153651 24.8581191,54.2779531 26.595654,57.2899404 C28.2430946,60.1453855 29.8748044,60.0634908 31.7560614,57.5051859 C34.1771698,54.2127272 36.5889827,51.5130995 40.767647,50.7579285 C43.3017309,50.299173 50.2497257,53.5126358 50.8617956,49.4795008 C51.0205334,48.4351616 50.133175,46.7987162 49.9579914,45.7282866 C49.5518516,43.2352076 49.968717,40.9885376 51.013383,38.7447665 C52.7187414,35.0819697 55.7547799,33.7991936 58.3053096,31.4365664 M45.1715474,27.1722418 C44.2913393,28.2803574 43.0414582,29.2304814 43.2981558,30.7625654 C43.629217,32.7352866 46.7167379,33.9223981 46.2090631,36.5444794 C45.5054687,40.1746633 40.4036942,37.9403137 38.8063061,40.3630937 C37.7144477,42.0198316 38.9242869,45.5384068 36.5181942,46.6755117 C33.8503988,47.9372705 32.4088883,44.4165212 30.2752239,43.8113698 C28.5405491,43.3192766 27.9213288,44.5991537 26.5498918,45.3992582 C23.0733918,47.4256096 21.4731435,46.8552453 20.5200019,42.8242844 C19.8578795,40.0231942 20.4384879,39.3346986 17.4396313,38.6157642 C14.8340439,37.9924944 11.8423376,37.406186 13.0121348,34.1854759 C13.5148044,32.8005125 15.5204774,31.3626437 15.7943358,30.062474 C16.3334722,27.5063433 12.8448166,25.8307623 13.2073393,23.0608356 C13.7285998,19.0755329 19.5747257,21.993305 20.911126,18.2913726 C21.4910194,16.6860907 21.3136907,13.2001285 23.2993428,12.4710478 C26.0650981,11.4556979 27.596703,15.5279685 29.7511033,15.8338055 C32.0978481,16.1664576 33.528633,12.8428355 36.1806977,13.098666 C39.1774093,13.3900083 38.3150771,16.7882779 39.1602484,19.0291501 C40.5324005,22.6658566 50.3155089,20.6895117 45.1715474,27.1722418" id="Fill-1" fill="#0082C7" mask="url(#mask-2)"></path>
                </g>
                <path d="M263.797971,20.4330473 C262.752835,20.4330473 263.40381,20.4337664 262.496737,20.4330473 C260.568135,20.4301706 258.640964,20.4589376 256.714507,20.4121912 C255.440457,20.3819858 254.589182,19.4262022 254.599912,18.1748377 C254.609927,16.9687812 255.445464,16.1007369 256.685893,16.0129976 C256.881186,16 257.077193,16.0036483 257.273916,16.0036483 C270.766263,16.0029291 253.875971,15.9935799 267.367602,16.0079634 C272.547502,16.0129976 276.343901,19.9260289 276.003391,24.9717608 C275.773761,28.3777737 273.992523,30.7870101 270.922211,32.2339902 C270.573832,32.3979621 270.211146,32.5295711 269.74688,32.7215909 C270.882866,33.954976 271.950894,35.1452107 273.061843,36.2944524 C273.231383,36.4692119 273.590492,36.5044515 273.867335,36.518835 C274.551932,36.5533554 275.240821,36.5030131 275.923986,36.5511979 C277.137947,36.6353414 277.992083,37.5616388 278,38.7439625 C278.007106,39.8874508 277.211629,40.8561796 276.037728,40.9273779 C274.703588,41.0079255 273.350132,41.0496376 272.028868,40.8993301 C271.425107,40.8295701 270.769125,40.3657022 270.324888,39.8982384 C268.31402,37.7881789 266.378264,35.6062019 264.396725,33.4680946 C264.170672,33.2242942 263.826586,32.9387817 263.534005,32.9351859 C260.534513,32.8963504 257.536452,32.9114531 254.423935,32.9114531 C254.423935,34.7870615 254.472579,36.5857183 254.398182,38.3793408 C254.373144,38.9963929 254.172844,39.6889585 253.827327,40.1916618 C253.297963,40.9626175 252.42022,41.1330619 251.538185,40.8554604 C250.602498,40.562037 250.069557,39.8601222 250.038797,38.8770099 C249.990868,37.3688999 250.011613,35.8564748 250.007321,34.3469264 C250.00446,33.2300476 249.990152,32.1131688 250.011613,30.99629 C250.043804,29.2760233 250.853588,28.4755815 252.564722,28.4727048 C257.562921,28.4655131 262.561119,28.4798966 267.559318,28.4619172 C269.158856,28.4547255 270.388555,27.7269203 271.151125,26.3007963 C271.877928,24.9401171 271.805677,23.5758421 270.980155,22.2806079 C270.2183,21.0874965 269.080882,20.4531842 267.688798,20.4495883 C258.411334,20.4294514 271.725557,20.4388007 262.448093,20.4423965 C262.324336,20.4423965 263.760773,20.4884237 263.535435,20.5330126 L263.797971,20.4330473 Z" id="Fill-4" fill="#0082C7"></path>
                <path d="M125.512604,42 C121.986342,41.9210236 118.652093,41.2825691 115.780553,39.0823 C108.443618,33.4616864 109.783381,21.2166464 118.212483,17.5350153 C122.813588,15.5236992 127.642077,15.5428897 132.311035,17.2766811 C137.627498,19.2510923 140.403031,24.2576087 139.952594,30.3941525 C139.556295,35.7933369 135.813477,40.1399939 130.395232,41.3475217 C128.797045,41.7047609 127.141831,41.7896422 125.512604,42 M125.132908,37.3795087 C126.551353,37.2651036 127.610315,37.2436987 128.648343,37.0850077 C132.803341,36.4509819 135.422953,33.5214723 135.565158,29.4102684 C135.714582,25.0820638 133.382268,21.9429345 129.213555,21.055003 C126.676234,20.5161917 124.093437,20.5095488 121.561891,21.1288127 C117.76782,22.0558634 115.600089,24.8687535 115.520685,28.8197903 C115.439116,32.8483272 117.497846,35.7778368 121.293361,36.8082211 C122.646839,37.1750557 124.080443,37.230413 125.132908,37.3795087" id="Fill-6" fill="#0082C7"></path>
                <path d="M185.461452,42 C181.972893,41.9101004 178.677582,41.2749084 175.825732,39.1180558 C168.648877,33.6887116 169.638912,21.7217533 177.718553,17.8295443 C182.846836,15.3595169 188.246964,15.4258363 193.408416,17.8148067 C198.09468,19.9841863 200.551381,25.2197306 199.895203,30.7507644 C199.259936,36.1049466 195.712249,40.1349525 190.434704,41.3323852 C188.809402,41.7015629 187.121366,41.7855674 185.461452,42 M185.127595,37.3863839 C186.586329,37.2655353 187.643424,37.2449026 188.680329,37.0813148 C192.752959,36.438754 195.307726,33.6209185 195.541354,29.5798594 C195.779309,25.4437426 193.61248,22.2375705 189.724445,21.2177262 C186.944703,20.4882134 184.097179,20.4926347 181.315994,21.2184631 C177.639956,22.1793568 175.522881,25.0922501 175.49548,28.9851959 C175.468079,32.8840368 177.533237,35.7777712 181.238839,36.7917203 C182.620418,37.1704775 184.084921,37.2345862 185.127595,37.3863839" id="Fill-8" fill="#0082C7"></path>
                <path d="M293.514293,42 C290.017748,41.9276184 286.70489,41.3153293 283.833167,39.1726865 C279.891147,36.230892 278.609683,32.0918469 279.099272,27.3272181 C279.57729,22.6911035 281.973887,19.290646 286.18782,17.5003096 C290.785759,15.5482225 295.572445,15.5430523 300.221729,17.2403267 C305.454614,19.1495758 308.379128,24.2554321 307.960411,30.1323739 C307.561219,35.7271752 303.880988,40.1010912 298.404394,41.3382255 C296.804733,41.7001334 295.145773,41.7872868 293.514293,42 M293.050016,37.3816115 C294.514442,37.2619603 295.575338,37.2390641 296.614539,37.078052 C300.74603,36.4406509 303.251104,33.660607 303.519401,29.4861097 C303.776128,25.4829647 301.629025,22.2671542 297.8179,21.212451 C294.970042,20.424378 292.046974,20.4347182 289.194777,21.1969407 C285.539857,22.1740921 283.458563,25.0693557 283.432529,28.9299532 C283.406494,32.8747498 285.442951,35.7530258 289.153556,36.7767082 C290.538433,37.1585581 292.00503,37.2272467 293.050016,37.3816115" id="Fill-10" fill="#0082C7"></path>
                <path d="M208.372389,23.4255624 C208.372389,28.3933321 208.373104,33.1200178 208.371675,37.8459839 C208.371675,38.2403541 208.388814,38.637603 208.34811,39.0276553 C208.230285,40.1495954 207.350525,40.9592059 206.255824,40.9836741 C205.126846,41.0095816 204.179962,40.1877371 204.033573,39.0478056 C204.00858,38.8527794 204.007866,38.6548746 204.007866,38.4576895 C204.006438,31.8203232 204.013579,25.1822372 204,18.5455905 C203.997869,17.5359163 204.314925,16.7428579 205.22182,16.2585309 C206.128002,15.7749236 207.032755,15.9685105 207.961787,16.8500863 C212.566245,21.221263 217.165705,25.5967577 221.768021,29.9700934 C222.97055,31.1129036 224.173793,32.2542744 225.525567,33.5388563 C225.55056,33.0012749 225.57841,32.6608787 225.57841,32.3197629 C225.581266,27.8507132 225.57841,30.8279207 225.584837,26.358871 C225.584837,25.9335557 225.586979,25.4974455 225.683381,25.0886822 C225.923316,24.0638953 226.797363,23.4162069 227.834223,23.432759 C228.823239,23.4478717 229.642301,24.0912421 229.884378,25.0858036 C229.968641,25.431957 229.995062,25.8004197 229.995062,26.1588073 C230.001489,32.6651967 230,31.7260485 229.999347,38.2309986 C229.999347,38.3957993 230.000775,38.5598804 229.990064,38.7246811 C229.932936,39.6875777 229.531617,40.4568876 228.621865,40.823911 C227.727109,41.1851772 226.890195,40.9793562 226.183959,40.3093586 C224.237347,38.4627271 222.294306,36.6110581 220.351264,34.7608283 C216.608,31.1949441 212.866164,27.6269009 209.121471,24.0617363 C208.939378,23.8882998 208.738718,23.7357332 208.372389,23.4255624" id="Fill-12" fill="#0082C7"></path>
                <path d="M387.373561,20.5031115 C387.373561,22.9174161 387.374277,25.2363531 387.372846,27.5560072 C387.372846,27.9482331 387.391447,28.3447613 387.349953,28.7334019 C387.223324,29.8978898 386.316889,30.703136 385.168643,30.7038531 C384.017535,30.7038531 383.05029,29.8986069 383.034551,28.7140416 C382.986618,25.146722 382.98948,21.5772511 383.037413,18.0084974 C383.052436,16.9157144 383.901638,16.0774839 385.010536,16.0746157 C389.418942,16.0602748 393.849526,15.8501794 398.231461,16.2058357 C404.419112,16.7070531 409.177357,22.4900547 408.994926,28.7549134 C408.806055,35.2614177 403.856793,40.6127557 397.551814,40.8909708 C393.475362,41.0709501 389.386032,40.9770167 385.303142,40.9633927 C383.875883,40.9576563 382.98948,40.0262095 383.007365,38.706839 C383.025966,37.4039606 383.935978,36.5528232 385.394715,36.5456528 C389.217909,36.5270095 393.041819,36.6015826 396.861435,36.5076491 C399.954903,36.4316419 402.295751,34.916517 403.704409,32.16018 C405.130953,29.3665564 404.924197,26.5722157 403.183585,23.9650249 C401.817852,21.9214347 399.852598,20.6465213 397.401576,20.5389639 C394.113515,20.394837 390.814007,20.5031115 387.373561,20.5031115" id="Fill-14" fill="#0082C7"></path>
                <path d="M157.426565,40.9982196 C153.96277,41.0396057 150.718431,40.3652968 147.811549,38.3652037 C141.07967,33.7335218 141.014913,21.2662985 150.150006,17.4666211 C154.975142,15.4608196 159.967209,15.5600036 164.836956,17.4730431 C166.027051,17.9404212 167.094827,18.7902646 168.110077,19.5987218 C169.202316,20.4685446 169.267793,21.8492725 168.42379,22.7990135 C167.60497,23.7209258 166.281044,23.8208234 165.257879,22.9231719 C163.384954,21.2791425 161.165938,20.584854 158.736821,20.5877082 C156.973264,20.5898489 155.164378,20.6019793 153.456225,20.9744547 C149.639862,21.8064592 147.474091,24.6692397 147.46042,28.513871 C147.446749,32.3898987 149.560715,35.1920271 153.364125,36.1439087 C155.945063,36.7896755 158.602989,36.8332023 161.171694,36.1888626 C162.525841,35.8499243 163.823145,35.1021192 165.006045,34.3279126 C166.334288,33.4588033 167.551006,33.3724632 168.417314,34.4049765 C169.284342,35.4382033 169.087912,36.6912049 167.888463,37.74013 C165.685277,39.6660134 163.059729,40.5850715 160.180908,40.8633578 C159.267111,40.9518385 158.344679,40.9561199 157.426565,40.9982196" id="Fill-16" fill="#0082C7"></path>
                <path d="M316.408828,36.5476175 L320.756691,36.5476175 C324.640753,36.5476175 323.464458,36.5296382 327.347091,36.5677544 C327.936668,36.5735078 328.591277,36.7295684 329.094383,37.0258679 C329.863334,37.477509 330.119889,38.2887368 329.949805,39.1704436 C329.774004,40.0881091 329.213013,40.7037217 328.295416,40.9094053 C327.887358,41.0007403 327.452857,40.9964253 327.030506,40.9964253 C321.319826,41.0007403 320.667361,41.0007403 314.957397,40.9985828 C312.719862,40.9978636 312.002365,40.2923544 312.00165,38.0787381 C311.998792,31.6759357 312.000221,25.2716949 312.00165,18.8674541 C312.002365,18.572593 312.00165,18.2755743 312.039526,17.984309 C312.196747,16.7796932 313.068606,15.9893215 314.207741,16 C315.325436,16.0101775 316.245176,16.8444188 316.386674,18.0022883 C316.426694,18.3259164 316.408114,18.6581746 316.408114,18.9861178 C316.408828,24.4374535 316.408828,29.8887893 316.408828,35.3401251 L316.408828,36.5476175 Z" id="Fill-18" fill="#0082C7"></path>
                <path d="M337.408791,36.5476175 L341.756666,36.5476175 C345.640024,36.5476175 344.46444,36.5296382 348.347083,36.5677544 C348.936662,36.5735078 349.591273,36.7295684 350.09438,37.0258679 C350.863334,37.477509 351.11989,38.2887368 350.949805,39.1704436 C350.774003,40.0881091 350.212296,40.7037217 349.295412,40.9094053 C348.887352,41.0007403 348.45285,40.9964253 348.030497,40.9964253 C342.319803,41.0007403 341.667335,41.0007403 335.957355,40.9985828 C333.719815,40.9978636 333.002315,40.2923544 333.001601,38.0787381 C332.998742,31.6759357 333,25.2716949 333.002315,18.8674541 C333.002315,18.572593 333.001601,18.2755743 333.039477,17.984309 C333.196698,16.7796932 334.06856,15.9893215 335.207697,16 C336.325395,16.0101775 337.245138,16.8444188 337.386637,18.0022883 C337.426657,18.3259164 337.408076,18.6581746 337.408076,18.9861178 C337.408791,24.4374535 337.408791,29.8887893 337.408791,35.3401251 L337.408791,36.5476175 Z" id="Fill-20" fill="#0082C7"></path>
                <path d="M103.000414,28.4089227 C103.000414,25.2234649 102.998471,22.0394469 103.003004,18.8554289 C103.003652,18.4954902 103.003004,18.1283527 103.063232,17.7770525 C103.237441,16.7649047 103.943987,16.0745423 104.831219,16.0061539 C105.767021,15.9327264 106.589491,16.5208663 106.864079,17.5308544 C106.972231,17.9296665 106.993602,18.3702315 106.99425,18.7913598 C107.002021,25.2594588 107.001373,31.726118 106.995545,38.194217 C106.994897,38.5843906 106.98324,38.987522 106.895165,39.3618583 C106.645186,40.4215179 105.807821,41.0665281 104.844819,40.9945404 C103.925854,40.9275918 103.203765,40.1969161 103.049633,39.1394161 C102.997823,38.7866762 103.002357,38.4202586 103.002357,38.0603198 C102.999119,34.8431875 103.000414,31.6260551 103.000414,28.4089227" id="Fill-22" fill="#0082C7"></path>
                <path d="M241.178121,20.4410979 L241.178121,21.6620344 C241.178121,27.0800297 241.178121,32.4980251 241.177406,37.9153014 C241.176691,38.2762614 241.186703,38.6400976 241.152378,38.9981815 C241.037246,40.1781324 240.146226,41.0007186 239.00492,41 C237.880062,40.9992805 236.946136,40.1615944 236.818132,39.0147195 C236.779517,38.6573547 236.793819,38.2927995 236.793819,37.9318394 C236.791674,32.5145631 236.792389,27.0972868 236.792389,21.6792914 L236.792389,20.4899929 C236.394076,20.4727358 236.050111,20.4439741 235.706146,20.4432551 C233.322704,20.4389408 230.938547,20.4475693 228.555106,20.4375027 C226.96972,20.4317503 225.992888,19.573931 226,18.2235667 C226.00719,16.9084355 226.961139,16.013945 228.468578,16.0110688 C235.521649,15.9959689 242.575435,15.9959689 249.62779,16.0132259 C250.974331,16.0161021 251.85963,16.818555 251.988349,18.0294249 C252.098475,19.0511862 251.416981,20.0887664 250.407969,20.3504984 C250.037545,20.4468503 249.632081,20.4360646 249.242349,20.4367837 C246.60147,20.4439741 243.960591,20.4410979 241.178121,20.4410979" id="Fill-24" fill="#0082C7"></path>
                <path d="M96.9441425,28.5041995 C98.9205698,26.203397 99.5472244,23.6176854 98.4825546,20.8001712 C97.4035939,17.9460565 95.2585344,16.1741659 92.2074337,16.0930709 C86.5353875,15.940928 80.8569103,16.0155641 75.182006,16.0392467 C73.8308042,16.044988 72.9762102,17.0166931 73.0005047,18.3056018 C73.0240846,19.5686749 73.9215512,20.4456495 75.3027638,20.4506731 C80.6854199,20.4686145 86.068076,20.4463672 91.4500176,20.4671792 C93.601508,20.4750734 94.9619988,22.2239991 94.413944,24.2004214 C94.0466686,25.5273659 92.9434135,26.3060217 91.3657015,26.3081747 C86.2116993,26.3167866 88.4496495,26.311763 83.2956473,26.3131983 C82.9698154,26.3131983 82.6404109,26.2974099 82.3181518,26.3340103 C81.2006058,26.4588823 80.4188952,27.3286804 80.3931716,28.4489401 C80.3653044,29.6345065 81.1170042,30.5466462 82.2738501,30.6966361 C82.6604181,30.7461543 83.0548461,30.7404131 83.4457014,30.7404131 C88.4696567,30.7432837 86.100945,30.7526132 91.1241858,30.7353895 C92.5025401,30.7310836 93.6458097,31.1035466 94.2674626,32.4434088 C95.1677874,34.3839484 93.7772857,36.5074901 91.5421937,36.5426552 C88.8347884,36.5849969 86.1273831,36.5541377 83.4192633,36.5548554 C80.7768815,36.555573 78.1352142,36.5483965 75.4928324,36.557726 C73.9558493,36.5627496 73.0205119,37.3851824 73.0005047,38.7121268 C72.9797829,40.0878718 73.9201222,40.974176 75.4914033,40.9784819 C80.6454055,40.992835 85.7994077,40.9454698 90.9534099,40.9992939 C94.2295918,41.0337413 96.7690793,39.8101393 98.2160299,36.8153642 C99.646546,33.8543189 99.0591912,31.0863229 96.9441425,28.5041995" id="Fill-26" fill="#0082C7"></path>
                <path d="M76.9968771,37.8622034 C76.9968771,35.3868321 76.9975309,30.6057933 76.9962233,28.2274665 C76.9955694,27.8253198 77.0138762,27.4187619 76.9753012,27.0202911 C76.8595763,25.8263491 76.0318491,25.0007352 74.9818255,25 C73.9298405,25 73.0458854,25.8256139 73.0315015,27.0401412 C72.987696,30.6976915 72.9903113,34.3574474 73.0347706,38.015733 C73.0478468,39.1368916 73.8245766,39.9955889 74.8373329,40 L76.9968771,37.8622034 Z" id="Fill-28" fill="#0082C7"></path>
                <path d="M356.50095,19.9966383 C363.476583,20.00246 370.452215,19.9992257 377.426418,19.997932 C377.655174,19.997932 377.88822,20.0095754 378.109827,19.9714109 C379.019133,19.8161655 379.657506,19.3530167 379.904133,18.5334504 C380.163629,17.6744259 379.899129,16.8930241 379.076322,16.4421656 C378.556617,16.157549 377.857481,16.032059 377.236265,16.0249436 C373.8471,15.9867791 370.45579,16.0061848 367.06591,16.0061848 C365.730546,16.0061848 364.393752,16.0055379 363.057673,16.0061848 C360.807999,16.0074785 358.559041,15.9841917 356.310082,16.0204156 C354.759544,16.0449961 353.781611,17.1136019 354.041822,18.4047261 C354.243413,19.4067058 355.131273,19.9953446 356.50095,19.9966383" id="Fill-30" fill="#0082C7"></path>
                <path d="M377.48562,36.5953903 C371.194533,36.5834802 364.904874,36.5897856 358.613073,36.5911867 C358.535899,36.5911867 358.458725,36.5897856 358.382981,36.5897856 L358.382981,31.3024324 C359.602754,31.3073365 359.731377,31.2975282 362.301691,31.2968276 C365.885981,31.296127 369.080116,31.3108394 372.662977,31.2884206 C373.987792,31.2800135 374.935314,30.3489293 374.941745,29.1502197 C374.949606,27.9606178 373.999226,27.01342 372.669408,27.0106176 C365.502256,26.9931029 363.393556,27.0022106 356.226404,27.0036117 C355.374635,27.0043123 354.712227,27.3602121 354.292774,28.0888257 C353.995512,28.6058612 353.937632,29.1516209 354.060538,29.6441357 C354.059109,29.6700575 354.051963,29.6945782 354.051963,29.7205 C354.006945,33.0230815 354.002658,35.3287234 354.041959,38.5241147 C354.038386,38.5689525 354.026953,38.6116885 354.025524,38.6572268 C354.020522,38.8085543 354.03124,38.9549776 354.053392,39.0971974 C354.091979,40.2300515 355.043788,41 356.180671,41 C356.378608,40.9992994 356.567255,40.9684734 356.748041,40.9229351 C356.815925,40.9236357 356.884524,40.9250369 356.953838,40.9250369 L377.586374,40.9187316 C378.804719,40.9033186 379.614328,40.3309365 379.900157,39.3655234 C380.34462,37.8669612 379.263474,36.5988932 377.48562,36.5953903" id="Fill-32" fill="#0082C7"></path>
            </g>
        </g>
    </g>
</svg>