<?xml version="1.0" encoding="UTF-8"?>
<svg width="258px" height="70px" viewBox="0 0 258 70" version="1.1" xmlns="http://www.w3.org/2000/svg" xmlns:xlink="http://www.w3.org/1999/xlink">
    <!-- Generator: Sketch 57.1 (83088) - https://sketch.com -->
    <title>Group 17</title>
    <desc>Created with Sketch.</desc>
    <defs>
        <polygon id="path-1" points="0.0121805696 0.45829866 32.8361203 0.45829866 32.8361203 52.3084905 0.0121805696 52.3084905"></polygon>
    </defs>
    <g id="Page-1" stroke="none" stroke-width="1" fill="none" fill-rule="evenodd">
        <g id="Home-" transform="translate(-1018.000000, -2796.000000)">
            <g id="Group-17" transform="translate(1018.000000, 2796.000000)">
                <g id="Group-3" transform="translate(67.000000, 17.000000)">
                    <mask id="mask-2" fill="white">
                        <use xlink:href="#path-1"></use>
                    </mask>
                    <g id="Clip-2"></g>
                    <path d="M2.89955602,37.2540525 C-0.592008299,34.0098363 0.632688797,28.8449177 5.75789627,26.3281165 C2.03188382,24.6951108 1.23058506,21.4716001 1.15511203,17.8960968 C1.12246058,16.3355602 1.12085477,14.7559527 1.32372199,13.2144869 C1.98959751,8.14601212 5.04117012,5.29519939 10.6069046,4.68438879 C13.7521494,4.33947968 16.9348631,4.36563393 20.0913485,4.10082219 C23.0701245,3.85072222 25.8096349,2.91025915 28.0593734,0.45829866 C29.5961328,2.1583246 31.0884647,3.80822157 32.8361203,5.7414562 C31.2608216,7.00012925 29.7781245,8.18524349 28.195332,9.45099999 C30.6500788,12.8717573 30.4862863,16.9120433 29.840751,20.9975544 C29.2235851,24.9070692 26.9438714,27.3797351 23.1734315,28.2057734 C21.0591162,28.6683766 18.861834,28.7719038 16.6950622,28.9484449 C14.8692573,29.0971972 13.0311411,29.0830303 11.203195,29.2127118 C10.401361,29.2693793 9.59578008,29.4802479 9.54921162,30.5716428 C9.50157261,31.6870124 10.2750373,31.9392919 11.1009585,31.9899657 C13.0771743,32.111474 15.0624896,32.097852 17.0349585,32.2547774 C19.8429834,32.4770885 22.6879419,32.5806158 25.4365519,33.1423871 C29.1518589,33.9014051 30.7523154,35.9354426 31.0327967,39.7539624 C31.1650083,41.5542463 31.1494855,43.3850434 30.9926515,45.1836927 C30.693971,48.6120783 29.0223237,50.6510197 25.7389793,51.5141098 C24.0250456,51.9647256 22.2260041,52.3134489 20.4665726,52.3085961 C16.0174108,52.294923 11.5645021,52.1298243 7.12283402,51.8590189 C5.88047303,51.7832806 4.53534025,51.3506458 3.48567635,50.6793535 C2.41246058,49.9933494 1.3076639,48.9646158 0.812539419,47.8187329 C-0.231236515,45.4032794 -0.242477178,42.7595211 0.710838174,40.2874 C1.13423651,39.1911012 2.11110373,38.3154789 2.89955602,37.2540525 M15.805444,11.8108757 C15.8043734,11.7858113 15.8027676,11.7612917 15.8016971,11.7362272 C14.6685311,11.8283119 13.5262656,11.8566457 12.4048755,12.027738 C10.8734689,12.2609467 9.8393278,13.1616335 9.70015768,14.7810172 C9.593639,16.0255234 9.60702075,17.2983633 9.73120332,18.5417797 C9.89124896,20.1464517 10.8954149,21.1691916 12.4444855,21.26727 C14.6032282,21.4040349 16.7801701,21.3816949 18.9415892,21.2683598 C20.1416639,21.2062435 21.0564398,20.4935403 21.4637801,19.2435853 C22.9914398,14.554892 21.2946349,11.9830579 16.5473278,11.8119655 C16.3005685,11.8027025 16.0527386,11.8108757 15.805444,11.8108757 M15.1149461,39.4488295 C15.1138755,39.469535 15.1122697,39.4902404 15.1106639,39.5109459 C14.4683402,39.5109459 13.8254813,39.5207537 13.1831577,39.5082215 C12.540834,39.4956892 11.8995809,39.4526437 11.2572573,39.4368422 C9.69052282,39.3970659 8.83248548,40.141917 8.67029876,41.6703057 C8.42835685,43.9544432 8.85443154,44.9150668 10.6079751,44.9929846 C13.9550166,45.1406472 17.3175809,45.1308393 20.6651577,44.9837217 C22.3132531,44.9112526 22.7275519,44.1347985 22.6991826,42.2805715 C22.6724191,40.596347 22.1756888,39.9288689 20.5854025,39.774123 C18.7686971,39.5970369 16.9391452,39.5518119 15.1149461,39.4488295" id="Fill-1" fill="#EB5A2F" mask="url(#mask-2)"></path>
                </g>
                <path d="M204.548413,41.6804263 C203.952107,45.7065441 204.764913,47.1715365 208.392749,47.4502423 C212.852008,47.7921655 217.345311,47.6580348 221.824252,47.7261996 C222.498221,47.7371939 223.173254,47.7278487 224.018508,47.7278487 C224.018508,50.0674388 224.049893,52.2432135 223.980208,54.4156899 C223.971165,54.6993432 223.46529,55.167701 223.149317,55.2072805 C216.827201,55.9988711 210.481148,56.5370428 204.188289,55.1182266 C199.073147,53.9649231 196.728884,51.2933048 196.249073,45.3640712 C195.878311,40.7755943 195.929377,36.0936657 196.34961,31.5079373 C196.887402,25.6501669 199.761478,22.7284279 205.350579,21.5839198 C209.152892,20.8049727 212.997228,20.7912298 216.797412,21.6278971 C221.609348,22.6871992 223.975953,25.2604184 224.666412,30.2540358 C224.944085,32.258849 225.022812,34.3114874 224.994619,36.3382892 C224.946745,39.7905038 223.329113,41.5358511 219.989589,41.6188582 C215.362768,41.7337488 210.731692,41.6688823 206.102212,41.6804263 C205.573995,41.6815258 205.046309,41.6804263 204.548413,41.6804263 M204.543093,34.583047 C208.377322,34.583047 212.238148,34.6017373 216.09791,34.5478652 C216.405372,34.5440171 216.882523,34.0938 216.981996,33.7568243 C217.57511,31.7487128 216.552188,29.6795829 214.536664,29.3211683 C212.577526,28.9720988 210.53647,28.8934895 208.547011,29.0028829 C205.009074,29.1969325 203.994131,30.6745683 204.543093,34.583047" id="Fill-4" fill="#EB5A2F"></path>
                <path d="M128.050671,47.7438308 C128.050671,50.1019326 128.089313,52.2339075 128.008852,54.3609307 C127.996677,54.676738 127.450387,55.1955644 127.107368,55.2379288 C120.76681,56.0180941 114.417782,56.5198647 108.093105,55.103133 C103.984817,54.18267 101.332242,51.6066942 100.673201,47.2613167 C99.7997733,41.5008582 99.726723,35.6881318 100.74731,29.9364762 C101.514339,25.6131062 104.146269,22.9232416 108.247675,21.8696334 C112.700041,20.7252443 117.188931,20.7208428 121.645532,21.7942578 C125.814165,22.7988994 128.064963,25.7435006 128.644072,30.030008 C128.942626,32.2368083 129.045849,34.497527 128.981798,36.726885 C128.892338,39.8442449 127.280466,41.5250664 124.250994,41.6086948 C119.598005,41.7368884 114.940251,41.6736169 110.284615,41.6912229 C109.754206,41.6928734 109.223797,41.6912229 108.730972,41.6912229 C107.928477,45.403335 108.857487,47.0753535 112.279736,47.4351759 C115.437311,47.7669387 118.636704,47.6772582 121.818629,47.7366784 C123.821162,47.7740911 125.824752,47.7438308 128.050671,47.7438308 M108.635689,34.606464 C112.459716,34.606464 116.215985,34.6284715 119.970667,34.5723524 C120.336448,34.5663004 120.906029,34.1536601 121.023016,33.8015403 C121.668294,31.8538781 120.62865,29.7031969 118.647821,29.3318206 C116.749041,28.9758496 114.766624,28.8856189 112.835025,28.9835522 C109.159216,29.1700656 108.168802,30.541682 108.635689,34.606464" id="Fill-6" fill="#EB5A2F"></path>
                <path d="M249.72937,55 C249.72937,51.4398284 249.732027,48.0156931 249.728839,44.5921109 C249.725119,40.801341 249.762315,37.0100181 249.695362,33.2209072 C249.642225,30.2192589 248.745801,29.291889 245.859921,29.1641475 C244.190882,29.0905994 242.511215,29.0944703 240.844302,29.2011981 C238.545056,29.3482943 237.708677,30.2314248 237.449898,32.6120615 C237.367536,33.3724274 237.382414,34.1466182 237.381883,34.9141731 C237.376569,41.0098195 237.378695,47.104913 237.378163,53.2005594 L237.378163,54.9845162 L229.13818,54.9845162 C229.093545,54.6798168 229,54.3430438 229,54.0057178 C228.999492,47.0910881 229.007994,40.1759054 229.02181,33.2612757 C229.022873,32.6469 229.053161,32.0319714 229.09939,31.4192547 C229.548931,25.4342069 232.080917,22.149979 237.791039,21.3835301 C241.696622,20.8592923 245.763211,20.889154 249.678359,21.3713642 C254.9586,22.0216845 257.498558,24.5394635 257.779654,30.0588908 C258.2005,38.3161886 257.889116,46.6144078 257.889116,55 L249.72937,55 Z" id="Fill-8" fill="#EB5A2F"></path>
                <path d="M161.998032,55 L153.638624,55 L153.638624,53.2930679 C153.638095,47.1525314 153.642856,41.0125473 153.631746,34.8725632 C153.630159,33.9539133 153.628572,33.0236629 153.501073,32.1188232 C153.236022,30.2378834 152.543505,29.4031991 150.770153,29.2778031 C148.626999,29.1242344 146.458452,29.12092 144.315299,29.2755935 C142.48481,29.4081707 141.768486,30.2737897 141.491796,32.2110748 C141.369058,33.0656457 141.348426,33.9423128 141.346309,34.809589 C141.334671,40.9495731 141.339961,47.0895572 141.339432,53.2300937 L141.339432,54.9850851 L133.12022,54.9850851 C133.076838,54.623812 133.000656,54.282978 133.000656,53.9426964 C132.99854,47.1884377 133.001185,40.434179 133.013882,33.6804727 C133.01494,32.8623606 133.041392,32.0414864 133.115458,31.2272411 C133.663018,25.2286728 136.369602,21.9672723 142.084324,21.316539 C145.799793,20.8933966 149.634297,20.8917394 153.348179,21.3281395 C159.034862,21.9965498 161.668438,25.1911092 161.854662,31.3316457 C162.059401,38.0792755 161.964174,44.8374011 161.997503,51.5905549 C162.002794,52.6627735 161.998032,53.7338872 161.998032,55" id="Fill-10" fill="#EB5A2F"></path>
                <path d="M195,22.0288088 C193.216793,29.9384025 191.49502,37.5818975 189.769474,45.2242974 C189.368535,47.0015743 189.003164,48.7892542 188.538635,50.5495576 C187.546528,54.3116245 185.489022,55.9158824 181.621365,55.974468 C179.476019,56.0067721 179.398418,56.0111524 177.253073,55.9717303 C173.429605,55.9016467 171.29827,54.2393508 170.412864,50.4542877 C168.754142,43.3588685 167.183798,36.2420958 165.578427,29.1335359 C165.058392,26.831727 164.543746,24.5288229 164,22.1087479 L172.703173,22.1087479 C173.432838,25.497948 174.167892,28.894266 174.893785,32.2927742 C175.909066,37.0447722 176.948057,41.7918426 177.912143,46.5542437 C178.213924,48.0446157 177.99136,48.5122048 179.405424,48.5018018 C180.816254,48.4924938 180.707397,48.1968285 181.044746,46.5624566 C182.641495,38.8308095 184.350874,31.1216111 185.958401,23.3910592 C186.175576,22.3469227 186.53502,21.9647479 187.610656,22.0025274 C189.997966,22.0868468 192.390126,22.0288088 195,22.0288088" id="Fill-12" fill="#EB5A2F"></path>
                <path d="M53.8824234,23 C54.1145103,33.0099495 54.7210164,42.9694463 47.2453772,50.9508633 C44.0949444,54.3147504 40.16009,56.2813137 35.8216063,57.0123312 C31.7263623,57.7027671 27.5195892,57.6896055 23.1614551,58 L23.1614551,46.3514305 C25.0059347,46.3514305 26.7176416,46.3651405 28.4293484,46.3481401 C31.4661276,46.3179781 34.45086,46.1008116 37.2162517,44.5411614 C40.5552218,42.6579549 42.1288449,39.6488828 42.7316334,35.9236 C42.9408833,34.6310207 42.4305047,34.3458525 41.2504201,34.3579173 C35.8343525,34.4111122 30.4161604,34.3184325 25.0006238,34.4028862 C23.4716124,34.4270158 22.9537985,33.9608756 23.00319,32.3770957 C23.0993175,29.2736987 23.0313378,26.1653662 23.0313378,23 L53.8824234,23 Z M37,0.0691310085 L37,11.1157783 C35.1603076,11.1157783 33.3524083,11.0626224 31.5482812,11.1271688 C28.0246289,11.2540919 24.4481677,11.1103542 20.9934905,11.6863897 C14.9565619,12.6930959 11.6867161,16.7405319 11.5013458,22.9299305 C11.3617793,27.605473 11.411355,32.2875244 11.3795619,36.9663214 C11.3730955,37.9361439 11.3784841,38.9065088 11.3784841,40 L0.240100379,40 C0.181363861,39.4950197 0.0735904327,38.9960059 0.0735904327,38.4975345 C0.0752070341,33.2242602 -0.143573024,27.9374257 0.165736713,22.6820508 C0.605452299,15.2147429 3.33966416,8.7525139 9.61584973,4.24511732 C13.094776,1.74679378 17.0549106,0.331113265 21.2693905,0.128795705 C26.4678418,-0.120711206 31.68677,0.0691310085 37,0.0691310085 Z" id="Fill-14" fill="#EB5A2F"></path>
            </g>
        </g>
    </g>
</svg>