<?xml version="1.0" encoding="UTF-8"?>
<svg width="176px" height="99px" viewBox="0 0 176 99" version="1.1" xmlns="http://www.w3.org/2000/svg" xmlns:xlink="http://www.w3.org/1999/xlink">
    <!-- Generator: Sketch 57.1 (83088) - https://sketch.com -->
    <title>Group 15</title>
    <desc>Created with Sketch.</desc>
    <g id="Page-1" stroke="none" stroke-width="1" fill="none" fill-rule="evenodd">
        <g id="Home-" transform="translate(-193.000000, -2414.000000)" fill="#CD202F">
            <g id="Group-24" transform="translate(-1.000000, 2320.000000)">
                <g id="Group-15" transform="translate(194.000000, 94.000000)">
                    <path d="M16.0976413,34.6772978 L0.868462441,34.6772978 L0.828125,59.7567419 C0.818899776,65.0549915 5.00400481,69.3545956 10.1694426,69.3545956 L16.0976413,69.3545956 L36.809375,69.3545956 L36.809375,63.4191602 L16.0976413,63.4191602 L16.0976413,34.6772978 Z" id="Fill-1"></path>
                    <path d="M50.8850676,34.6772978 C46.1241116,34.6772978 42.2044608,38.3328229 41.6256697,43.053771 L41.5845075,43.053771 L41.5836674,43.4328944 C41.5605662,43.7112054 41.5433452,43.9908089 41.54375,44.2755823 L41.5660265,50.6414089 L41.54375,59.7567419 C41.5345248,65.0549915 45.7196298,69.3545956 50.8850676,69.3545956 L56.8132663,69.3545956 L77.525,69.3545956 L77.525,63.4191602 L56.8132663,63.4191602 L56.8132663,55.9400894 L56.8132663,54.5493958 L72.9958965,54.5493958 L72.9958965,48.6135295 L56.8132663,48.6135295 L56.8132663,43.053771 L56.8132663,40.613164 L77.525,40.613164 L77.525,34.6772978 L56.8132663,34.6772978 L50.8850676,34.6772978 Z" id="Fill-3"></path>
                    <path d="M169.442827,36.4207947 L116.603733,2.58819196 C106.815647,-3.67955541 93.7753938,2.01720859 91.7797087,13.4332002 L88.191988,33.9555188 L124.385059,33.9555188 L124.385059,39.58285 L111.023199,39.58285 L111.023199,66.6755617 L97.1055008,66.6755617 L97.1055008,39.58285 L87.2074775,39.58285 L79.625105,82.9563479 C77.7492021,93.6865877 89.0255403,101.915201 98.7377374,96.9025555 L168.289719,61.0065708 C178.036784,55.9755457 178.676716,42.3332091 169.442827,36.4207947 L169.442827,36.4207947 Z M145.045424,66.7278406 L139.256091,66.7278406 C134.210885,66.7278406 130.123525,62.6513134 130.132535,57.6284568 L130.17275,33.8525948 L145.045424,33.8525948 L145.045424,66.7278406 Z" id="Fill-5"></path>
                </g>
            </g>
        </g>
    </g>
</svg>