<?xml version="1.0" encoding="UTF-8"?>
<svg width="504px" height="550px" viewBox="0 0 504 550" version="1.1" xmlns="http://www.w3.org/2000/svg" xmlns:xlink="http://www.w3.org/1999/xlink">
    <!-- Generator: Sketch 57.1 (83088) - https://sketch.com -->
    <title>Fill 1</title>
    <desc>Created with Sketch.</desc>
    <g id="Page-1" stroke="none" stroke-width="1" fill="none" fill-rule="evenodd">
        <path d="M352.212668,579.157552 C369.952607,579.157552 387.469773,574.0809 402.428325,564.313456 C423.23303,550.729938 437.034309,529.569048 441.290748,504.729425 L505.709003,128.848747 C510.62557,100.151359 498.905417,71.211175 475.118665,53.3227225 C451.489165,35.556077 420.742395,32.3743816 394.884346,45.0226833 L18.1006621,229.264261 C-7.56573666,241.813646 -24.0337397,266.443172 -25.9510618,295.147917 C-27.9756753,325.429612 -13.8443318,353.750134 11.8466376,370.905293 L299.466245,562.951507 C308.748181,569.151398 318.872067,573.659072 329.558619,576.35027 C337.02561,578.232146 344.640843,579.157552 352.212668,579.157552 M428.184815,46.7337029 C442.583978,46.7337029 456.92499,51.5266833 469.426487,60.9278899 C490.354865,76.6655098 500.674496,102.074928 496.361546,127.238279 L431.94411,503.120593 C428.138131,525.322155 415.818457,544.225121 397.252128,556.347772 C378.114125,568.846472 354.28069,572.776177 331.867432,567.132183 C322.237414,564.703401 313.10372,560.637175 304.722705,555.038961 L17.1006406,362.992747 C-5.72622132,347.750529 -18.2834115,322.624783 -16.4897612,295.783929 C-14.8017643,270.519208 -0.318242794,248.846566 22.2555425,237.808732 L399.039227,53.5663364 C408.394874,48.99081 418.306635,46.7337029 428.184815,46.7337029" id="Fill-1" fill="#0859A4" transform="translate(240.335722, 308.259671) scale(-1, 1) rotate(-13.000000) translate(-240.335722, -308.259671) "></path>
    </g>
</svg>