<?xml version="1.0" encoding="UTF-8"?>
<svg width="641px" height="611px" viewBox="0 0 641 611" version="1.1" xmlns="http://www.w3.org/2000/svg" xmlns:xlink="http://www.w3.org/1999/xlink">
    <!-- Generator: Sketch 57.1 (83088) - https://sketch.com -->
    <title>Fill 4</title>
    <desc>Created with Sketch.</desc>
    <g id="Page-1" stroke="none" stroke-width="1" fill="none" fill-rule="evenodd">
        <path d="M115.538789,570.272107 C127.666873,570.272107 139.948934,568.119971 151.987745,563.752691 L567.388564,413.06558 C599.963544,401.246838 623.031312,371.923791 627.587534,336.53794 C632.109357,301.41722 617.391523,267.466673 589.175381,247.933795 L188.707798,-29.2996895 C160.812712,-48.6124442 125.811788,-51.315297 95.0918932,-36.5441206 C62.4767809,-20.8597187 41.3910477,10.5909152 38.6874546,47.5871845 L9.2296739,450.570833 C6.40568447,489.218436 22.5895682,525.885748 52.524839,548.65583 C71.305024,562.937662 93.1565431,570.272107 115.538789,570.272107 M135.886583,-30.0893513 C151.258815,-30.0893513 166.464786,-25.4315742 179.731312,-16.2461299 L580.198895,260.988173 C603.874377,277.377133 615.731365,304.859818 611.912263,334.506096 C608.118551,363.974801 588.999291,388.361031 562.017415,398.149564 L146.616596,548.838312 C117.486424,559.407505 86.6772565,554.731726 62.0721838,536.016332 C36.4212195,516.506366 22.5584454,484.997633 24.9909421,451.732822 L54.4479038,48.7450823 C56.7321574,17.4916593 74.477917,-9.04425055 101.920083,-22.2401948 C112.844205,-27.4920596 124.412897,-30.0893513 135.886583,-30.0893513" id="Fill-4" fill="#CD202F" transform="translate(318.653491, 262.148449) scale(-1, 1) rotate(-13.000000) translate(-318.653491, -262.148449) "></path>
    </g>
</svg>