<svg xmlns="http://www.w3.org/2000/svg" xmlns:xlink="http://www.w3.org/1999/xlink" width="115" height="80" viewBox="0 0 115 80">
  <defs>
    <clipPath id="clip-path">
      <path id="Clip_2" data-name="Clip 2" d="M0,0H115V80H0Z" transform="translate(0.5 0.5)" fill="none"/>
    </clipPath>
  </defs>
  <g id="Group_3" data-name="Group 3" transform="translate(-0.5 -0.5)">
    <path id="Clip_2-2" data-name="Clip 2" d="M0,0H115V80H0Z" transform="translate(0.5 0.5)" fill="none"/>
    <g id="Group_3-2" data-name="Group 3" clip-path="url(#clip-path)">
      <path id="Fill_1" data-name="Fill 1" d="M58.17,80c-9.523,0-18.027-.188-26-.574-1.955-.1-4.076-.213-6.483-.359-4-.242-7.06-.53-9.919-.932l-.463-.063a18.882,18.882,0,0,1-2.86-.539,14.025,14.025,0,0,1-10.1-10.362,44.936,44.936,0,0,1-.886-4.544l-.044-.277c-.456-2.849-.782-5.912-1-9.364C.222,49.824.107,47.224.053,44.8c-.117-5.252-.045-10.135.22-14.928C.465,26.4.7,23.5,1.012,20.758c.307-2.7.673-5.085,1.121-7.282A14.027,14.027,0,0,1,7.406,5a12.924,12.924,0,0,1,5.889-2.671c2.435-.392,4.483-.7,6.562-.9,3.353-.334,6.68-.565,9.2-.728,2.5-.162,5.057-.281,7.811-.364C41.585.188,45.435.1,48.989.052,51.58.018,54.238,0,56.891,0c4.059,0,8.263.041,12.5.122C75.4.238,80.9.422,86.206.683,88,.772,89.495.85,91.044.972c2.315.182,4.582.385,6.737.6a24.154,24.154,0,0,1,4.84.908,15.041,15.041,0,0,1,6.1,3.562,14.73,14.73,0,0,1,3.612,6.035,31.7,31.7,0,0,1,1.093,5.158c.306,2.079.623,4.3.842,6.541.233,2.379.382,4.806.527,7.153l.018.289c.048.785.062,1.584.076,2.356.008.438.016.887.029,1.329.007.208.031.42.055.624.011.091.021.182.03.273v7.558c-.009.091-.02.182-.03.273-.024.2-.048.415-.054.623-.016.53-.027,1.066-.038,1.585-.02.944-.04,1.918-.09,2.874-.1,1.944-.2,3.844-.387,5.721-.275,2.81-.566,5.308-.889,7.637a42.613,42.613,0,0,1-.981,5.321,13.992,13.992,0,0,1-9.293,9.923,20.352,20.352,0,0,1-3.931.851L99,78.215c-2.579.382-5.327.66-8.912.9-2.681.181-5.415.333-8.126.452-3.239.142-5.9.229-8.364.273-3.717.067-8.616.145-13.538.157ZM46.385,22.926c-.045.255-.06,9.06-.055,17.133s.031,16.851.078,17.037l.055-.018a.5.5,0,0,0,.107-.041c8.943-5.112,18.388-10.512,29.723-16.994.008,0,.011-.021.014-.035a.169.169,0,0,0,0-.034c0-.005,0-.01,0-.015-.351-.256-8.071-4.675-15.095-8.673S46.556,22.968,46.385,22.926Z" transform="translate(0.5 0.5)" fill="#737b7f"/>
    </g>
  </g>
</svg>
