<svg xmlns="http://www.w3.org/2000/svg" xmlns:xlink="http://www.w3.org/1999/xlink" width="561.479" height="562.574" viewBox="0 0 561.479 562.574">
  <defs>
    <clipPath id="clip-path">
      <path id="Clip_5" data-name="Clip 5" d="M0,0H-459.667V458.119H0Z" transform="translate(0 0.543)" fill="none"/>
    </clipPath>
  </defs>
  <g id="Group_6" data-name="Group 6" transform="matrix(0.259, 0.966, -0.966, 0.259, 562.003, 443.864)">
    <path id="Clip_5-2" data-name="Clip 5" d="M0,0H-459.667V458.119H0Z" transform="translate(0 0.543)" fill="none"/>
    <g id="Group_6-2" data-name="Group 6" clip-path="url(#clip-path)">
      <path id="Fill_4" data-name="Fill 4" d="M-79.127,458.119h.009a76.7,76.7,0,0,0,46.757-16.07C-10.15,425.123,1.86,397.864-.235,369.132L-22.093,69.555C-24.1,42.051-39.746,18.671-63.947,7.011A71.351,71.351,0,0,0-78.9,1.747,68.576,68.576,0,0,0-94.238,0a68.5,68.5,0,0,0-39.173,12.4l-297.154,206.1c-20.936,14.52-31.858,39.76-28.5,65.868,3.381,26.306,20.5,48.1,44.669,56.891l308.236,112.021A78.986,78.986,0,0,0-79.127,458.119ZM-94.217,11.81a57.028,57.028,0,0,1,12.754,1.453,59.421,59.421,0,0,1,12.449,4.381c20.362,9.81,33.53,29.537,35.225,52.771L-11.93,370c1.805,24.729-8.481,48.152-27.515,62.656a65.163,65.163,0,0,1-39.731,13.656,67.179,67.179,0,0,1-23-4.124L-410.414,330.162c-20.022-7.277-34.208-25.406-37.023-47.312-2.834-22.038,5.963-42.469,23.532-54.653L-126.751,22.1A56.885,56.885,0,0,1-94.217,11.81Z" transform="translate(0 0.542)" fill="#e1e2e8"/>
    </g>
  </g>
</svg>
