<svg xmlns="http://www.w3.org/2000/svg" width="724.972" height="820.032" viewBox="0 0 724.972 820.032">
  <g id="Group_1" data-name="Group 1" transform="translate(-818.061 -176.957)">
    <path id="Fill_1" data-name="Fill 1" d="M381.272,545.923a93.488,93.488,0,0,1-22.829-2.829,97.236,97.236,0,0,1-30.325-13.5L38.282,336.084C12.391,318.8-1.848,290.261.193,259.75a78.878,78.878,0,0,1,44.392-66.386L424.273,7.719A75.8,75.8,0,0,1,457.636,0a77.484,77.484,0,0,1,24.692,4.053,80.533,80.533,0,0,1,22.8,12.029c23.969,18.025,35.781,47.185,30.826,76.1L471.037,470.928a88.719,88.719,0,0,1-39.162,60.038,91.584,91.584,0,0,1-24.25,11.169A93.356,93.356,0,0,1,381.272,545.923ZM457.83,9.444a65.759,65.759,0,0,0-14.882,1.713,68.273,68.273,0,0,0-14.488,5.171L48.771,201.974A69.4,69.4,0,0,0,9.727,260.391c-1.807,27.046,10.847,52.362,33.849,67.721L333.416,521.62a87.813,87.813,0,0,0,27.355,12.186,84.017,84.017,0,0,0,44.146-.854,82.042,82.042,0,0,0,21.742-10.012,79.249,79.249,0,0,0,34.96-53.633L526.532,90.561c4.346-25.357-6.054-50.959-27.143-66.815a72.255,72.255,0,0,0-20.062-10.7A66.384,66.384,0,0,0,457.83,9.444Z" transform="matrix(1, 0.017, -0.017, 1, 827.589, 441.776)" fill="#fff" opacity="0.2"/>
    <path id="Fill_4" data-name="Fill 4" d="M107.3,620.6h-.017a104.056,104.056,0,0,1-63.4-21.769C13.761,575.9-2.523,538.971.319,500.049L29.957,94.223C32.677,56.965,53.892,25.293,86.707,9.5a96.813,96.813,0,0,1,20.282-7.131A92.43,92.43,0,0,1,180.9,16.793L583.814,295.982c28.388,19.671,43.2,53.861,38.648,89.23-4.584,35.635-27.792,65.165-60.567,77.068L143.95,614.03A107.16,107.16,0,0,1,107.3,620.6ZM127.751,16a77.387,77.387,0,0,0-17.294,1.969A80.633,80.633,0,0,0,93.577,23.9C65.968,37.191,48.112,63.915,45.814,95.388L16.177,501.219c-2.447,33.5,11.5,65.231,37.308,84.878a88.412,88.412,0,0,0,53.873,18.5,91.171,91.171,0,0,0,31.19-5.586L556.49,447.258c27.148-9.857,46.383-34.415,50.2-64.092,3.843-29.854-8.085-57.531-31.907-74.037L218.514,62.263l-46.65-32.324A77.179,77.179,0,0,0,127.751,16Z" transform="matrix(1, 0.017, -0.017, 1, 919.855, 176.957)" fill="#fff" opacity="0.2"/>
  </g>
</svg>
