<svg xmlns="http://www.w3.org/2000/svg" xmlns:xlink="http://www.w3.org/1999/xlink" width="752.059" height="751.63" viewBox="0 0 752.059 751.63">
  <defs>
    <clipPath id="clip-path">
      <path id="Clip_2" data-name="Clip 2" d="M0,0H-527.61V536.306H0Z" fill="none"/>
    </clipPath>
  </defs>
  <g id="Group_3" data-name="Group 3" transform="translate(392.229 751.63) rotate(133)">
    <path id="Clip_2-2" data-name="Clip 2" d="M0,0H-527.61V536.306H0Z" fill="none"/>
    <g id="Group_3-2" data-name="Group 3" clip-path="url(#clip-path)">
      <path id="Fill_1" data-name="Fill 1" d="M-374.56,536.306a91.84,91.84,0,0,0,22.427-2.778,95.526,95.526,0,0,0,29.791-13.263l284.734-190.1c25.434-16.982,39.423-45.016,37.418-74.99A77.489,77.489,0,0,0-43.8,189.958L-416.8,7.583a74.657,74.657,0,0,0-16.088-5.7A74.764,74.764,0,0,0-449.58,0a76.116,76.116,0,0,0-24.257,3.982,79.112,79.112,0,0,0-22.4,11.817C-519.78,33.5-531.384,62.151-526.516,90.56l63.772,372.072a87.155,87.155,0,0,0,38.472,58.981,89.954,89.954,0,0,0,23.823,10.972A91.711,91.711,0,0,0-374.56,536.306ZM-449.77,9.277a64.6,64.6,0,0,1,14.62,1.683,67.046,67.046,0,0,1,14.233,5.08l373,182.375A68.178,68.178,0,0,1-9.556,255.8c1.776,26.57-10.655,51.441-33.253,66.528l-284.737,190.1a86.259,86.259,0,0,1-26.873,11.97,82.6,82.6,0,0,1-20.15,2.5,82.284,82.284,0,0,1-23.219-3.335,80.6,80.6,0,0,1-21.359-9.836,77.856,77.856,0,0,1-34.344-52.688L-517.263,88.966c-4.27-24.91,5.948-50.061,26.665-65.639a70.986,70.986,0,0,1,19.71-10.515A65.22,65.22,0,0,1-449.77,9.277Z" transform="translate(0 0)" fill="#cd202f"/>
    </g>
  </g>
</svg>
