<svg xmlns="http://www.w3.org/2000/svg" xmlns:xlink="http://www.w3.org/1999/xlink" width="30.939" height="30.827" viewBox="0 0 30.939 30.827">
  <defs>
    <clipPath id="clip-path">
      <path id="Clip_2" data-name="Clip 2" d="M0,0H30.939V30.827H0Z" transform="translate(0 0.067)" fill="none"/>
    </clipPath>
  </defs>
  <g id="Group_4" data-name="Group 4" transform="translate(0 -0.107)">
    <g id="Group_3" data-name="Group 3" transform="translate(0 0.04)">
      <path id="Clip_2-2" data-name="Clip 2" d="M0,0H30.939V30.827H0Z" transform="translate(0 0.067)" fill="none"/>
      <g id="Group_3-2" data-name="Group 3" clip-path="url(#clip-path)">
        <path id="Fill_1" data-name="Fill 1" d="M8.866,30.827c-1.93,0-3.5,0-4.954,0A3.573,3.573,0,0,1,.356,28.593a4.135,4.135,0,0,1-.339-1.624C-.005,18.992,0,10.946,0,3.847A3.835,3.835,0,0,1,1.11,1.091,3.9,3.9,0,0,1,3.883,0H27.114a3.712,3.712,0,0,1,3.708,2.87,3.844,3.844,0,0,1,.112.943c.006,6.866.007,14.25,0,23.237a3.743,3.743,0,0,1-3.794,3.774H8.866ZM16.28,4.478c-1.087,0-2.185,0-3.247.006l-2.451.005a5.824,5.824,0,0,0-3.122.867,5.827,5.827,0,0,0-2.936,5.124c-.029,2.494-.021,5.029-.014,7.48q0,1.195.006,2.39a5.574,5.574,0,0,0,.741,2.843,5.933,5.933,0,0,0,5.378,3.142c1.294.009,2.65.014,4.146.014,1.956,0,3.9-.008,5.538-.016a7.027,7.027,0,0,0,1.492-.177,5.768,5.768,0,0,0,3.252-2.036,6.035,6.035,0,0,0,1.372-3.976c-.006-1.088,0-2.193,0-3.262q0-.725,0-1.449V14.209q0-1.834,0-3.668a5.717,5.717,0,0,0-.738-2.9A5.893,5.893,0,0,0,20.374,4.5C19.157,4.484,17.857,4.478,16.28,4.478Z" transform="translate(0 0.067)" fill="#055aa5"/>
      </g>
    </g>
    <path id="Fill_6" data-name="Fill 6" d="M12.22,17.982H4.225a4.046,4.046,0,0,1-2.162-.554A4,4,0,0,1,.014,13.838C0,9.956,0,6.968.015,4.149A3.988,3.988,0,0,1,2.428.372,3.954,3.954,0,0,1,4.206.006L6.449,0h.02Q8.157,0,9.844,0c1.537,0,2.811,0,4.009.01a4.021,4.021,0,0,1,3.822,2.411,3.908,3.908,0,0,1,.365,1.754q0,1.23,0,2.46c0,2.353.007,4.784-.007,7.176a4.114,4.114,0,0,1-4.217,4.171ZM9.012,3.366A5.65,5.65,0,0,0,3.38,8.971a5.556,5.556,0,0,0,1.637,3.978A5.638,5.638,0,0,0,9,14.621h.035a5.65,5.65,0,0,0,5.633-5.606,5.554,5.554,0,0,0-1.637-3.977A5.638,5.638,0,0,0,9.047,3.366Zm5.905-1.643H14.9a1.43,1.43,0,0,0-1.419,1.417,1.4,1.4,0,0,0,.414.993,1.425,1.425,0,0,0,2.438-.991,1.435,1.435,0,0,0-1.418-1.419ZM9.03,12.684H9.022A3.69,3.69,0,0,1,6.406,11.6,3.647,3.647,0,0,1,5.324,8.99,3.7,3.7,0,0,1,9.019,5.3h.01a3.69,3.69,0,0,1,2.615,1.087A3.65,3.65,0,0,1,12.726,9,3.7,3.7,0,0,1,9.03,12.684Z" transform="translate(6.449 6.529)" fill="#055aa5"/>
  </g>
</svg>
