<svg xmlns="http://www.w3.org/2000/svg" width="31" height="31" viewBox="0 0 31 31">
  <path id="Fill_19" data-name="Fill 19" d="M9.067,31c-2.015,0-3.651,0-5.148,0A3.582,3.582,0,0,1,.356,28.754a4.2,4.2,0,0,1-.34-1.633C0,19.679,0,12.491,0,3.868A3.864,3.864,0,0,1,1.112,1.1,3.9,3.9,0,0,1,3.89,0H27.167a3.724,3.724,0,0,1,3.716,2.885A3.979,3.979,0,0,1,31,3.835C31,11.3,31,19.165,31,27.2A3.759,3.759,0,0,1,27.2,31H9.067ZM19.155,15.5a3.717,3.717,0,0,1,.729.075,2.229,2.229,0,0,1,1.652,2.393c.037,1.733.034,3.5.031,5.2,0,.743,0,1.509,0,2.265,0,.076,0,.152.01.232,0,.035,0,.07.006.105h4.2v-.414q0-.665,0-1.331c0-.952,0-1.936,0-2.9q0-.554-.007-1.109V20c-.007-1.332-.014-2.71-.084-4.062a4.549,4.549,0,0,0-1.225-2.83,4.779,4.779,0,0,0-3.6-1.444,4.825,4.825,0,0,0-4.2,2.236V12.1H12.631V25.75h4.014c0-.081,0-.158,0-.233V25.51c0-.141,0-.273,0-.406,0-.723,0-1.455,0-2.163-.005-1.637-.011-3.33.069-4.991A2.323,2.323,0,0,1,19.155,15.5Zm-13.518-3.4h0V25.753H9.824V12.093H5.637ZM7.7,5.2h0q-.062,0-.123,0A2.541,2.541,0,0,0,5.235,7.717,2.472,2.472,0,0,0,7.8,10.243h.026A2.521,2.521,0,0,0,10.239,7.8,2.567,2.567,0,0,0,7.7,5.2Z" transform="translate(0)" fill="#055aa5"/>
</svg>
