<?xml version="1.0" encoding="UTF-8"?>
<svg width="255px" height="106px" viewBox="0 0 255 106" version="1.1" xmlns="http://www.w3.org/2000/svg" xmlns:xlink="http://www.w3.org/1999/xlink">
    <!-- Generator: Sketch 57.1 (83088) - https://sketch.com -->
    <title>Group 13</title>
    <desc>Created with Sketch.</desc>
    <g id="Page-1" stroke="none" stroke-width="1" fill="none" fill-rule="evenodd">
        <g id="Sobre-Nosotros-" transform="translate(-667.000000, -3508.000000)" fill="#CF212F">
            <g id="Group-13" transform="translate(667.000000, 3508.000000)">
                <g id="Group">
                    <polygon id="Fill-2" points="165.866891 56.6098185 176.813643 56.6098185 171.43057 43.5830255"></polygon>
                    <path d="M44.8149754,36.3435524 L40.9665809,36.3435524 C40.422425,36.3584951 38.968691,36.4953145 37.7442231,37.4862044 L26.7665901,47.9531207 L26.7665901,47.9531207 L26.7661222,47.9531207 L15.7889571,37.4862044 C14.5644892,36.4953145 13.1102874,36.3584951 12.5661314,36.3435524 L8.7177369,36.3435524 C3.89753506,36.3435524 -0.0079420001,40.7231735 0,46.1193674 L0.0383791008,71.6634995 L14.2500672,71.6634995 L14.2500672,47.1055876 L24.6011956,56.2738872 L24.8721039,56.4928916 L26.1461681,57.524407 L27.3865442,57.524407 L28.6606085,56.4928916 L28.9315167,56.2738872 L39.2826452,47.1055876 L39.2826452,71.6634995 L53.4943332,71.6634995 L53.5327123,46.1193674 C53.5406543,40.7231735 49.6356452,36.3435524 44.8149754,36.3435524" id="Fill-3"></path>
                    <path d="M247.518452,39.1294379 L190.884122,2.78077707 C180.392627,-3.95325817 166.415819,2.16719117 164.276627,14.4319048 L160.43104,36.4808387 L159.376884,41.7346097 L158.477131,46.8940546 L160.647205,42.354733 C162.559003,38.3556846 166.603911,35.8088828 171.043719,35.8088828 L171.673966,35.8088828 C176.113774,35.8088828 180.158682,38.3556846 182.07048,42.354733 L195.874636,72.0183894 L182.327352,72.0183894 L179.062416,64.2374291 L163.593975,64.2374291 L160.389865,72.0183894 L154.232902,72.0183894 L151.249168,89.1259489 C149.238177,100.654733 161.324709,109.495226 171.734792,104.109773 L246.282755,65.5439841 C256.730269,60.139385 257.415728,45.4819665 247.518452,39.1294379 L247.518452,39.1294379 Z M232.378939,42.4467242 L218.043728,42.4467242 L218.043728,72.0183894 L203.317829,72.0183894 L203.317829,42.4467242 L189.061691,42.4467242 L189.061691,36.6008476 L232.378939,36.6008476 L232.378939,42.4467242 Z" id="Fill-5"></path>
                    <path d="M71.3138268,36.3704026 C66.3303314,36.3704026 62.2274048,40.0939445 61.6210195,44.9022352 L61.5779736,44.9022352 L61.5770378,45.2884114 C61.5527075,45.5713894 61.5344598,45.8567022 61.5349142,46.1462176 L61.5583222,52.6304291 L61.5349142,61.9145348 C61.5260378,67.3111956 65.9064231,71.6903498 71.3138268,71.6903498 L77.5194507,71.6903498 L99.2000653,71.6903498 L99.2000653,65.6446141 L77.5194507,65.6446141 L77.5194507,58.0275568 L77.5194507,56.6107991 L94.4589369,56.6107991 L94.4589369,50.5650634 L77.5194507,50.5650634 L77.5194507,44.9022352 L77.5194507,42.4161383 L99.2000653,42.4161383 L99.2000653,36.3704026 L77.5194507,36.3704026 L71.3138268,36.3704026 Z" id="Fill-7"></path>
                    <path d="M132.02549,50.4069506 L132.02549,50.4060167 L130.955426,50.4041489 C128.583692,50.4004132 126.658793,51.5262546 126.658793,53.8932766 L126.658793,56.609585 L129.31594,56.609585 L133.056252,56.609585 C133.049233,59.6807832 133.041279,62.7832678 133.041279,65.8171092 C130.42016,65.7414617 125.883967,65.7671445 123.353619,65.5644837 C121.133013,65.3865718 120.525224,64.6240255 120.477967,62.5782722 C120.474692,62.4171709 120.473288,62.2556026 120.473288,62.0945013 C120.473288,57.2142987 120.494811,51.0135321 120.497619,46.1333295 C120.497619,45.7705013 120.501362,45.4062722 120.537389,45.0453119 C120.667463,43.7378229 121.269637,43.0233735 122.688279,42.7772854 C123.879527,42.570889 125.106802,42.4541489 126.319573,42.4457436 C131.846756,42.4074528 137.374408,42.4214617 142.902059,42.4163251 C143.163141,42.4158581 143.42516,42.4163251 143.727885,42.4163251 C143.743793,42.1861136 143.766719,42.0086687 143.767187,41.8316907 C143.769995,40.2585013 143.748472,38.6853119 143.781224,37.1130564 C143.79105,36.6353559 143.620738,36.5106775 143.111674,36.4747216 C133.040343,35.7205806 120.44194,35.126607 111.803756,36.9505542 C109.185444,37.8405806 107.073389,39.2451973 106.0576,41.7280255 C105.507362,43.0714705 105.381031,44.4751533 105.380564,45.8933119 C105.378567,50.9145365 105.375885,56.9238493 105.384307,61.945074 C105.385242,62.6095586 105.416123,63.2768449 105.483967,63.9385277 C105.817573,67.1909066 107.615206,69.470607 110.98916,70.6692943 C111.731233,70.9331269 112.488279,71.1829506 113.261701,71.3477876 C118.427674,72.450281 123.681141,72.6207216 128.945839,72.3643603 C133.221417,72.1556291 137.486701,71.7722546 141.756664,71.4631269 C143.233325,71.3566599 144.709518,71.2408537 146.20349,71.1283163 L146.20349,50.4485101 L146.119738,50.4485101 L146.20349,50.4069506 L132.02549,50.4069506 Z" id="Fill-9"></path>
                </g>
            </g>
        </g>
    </g>
</svg>