<svg xmlns="http://www.w3.org/2000/svg" xmlns:xlink="http://www.w3.org/1999/xlink" width="609" height="899" viewBox="0 0 609 899">
  <defs>
    <clipPath id="clip-path">
      <rect id="Rectangle_1" data-name="Rectangle 1" width="609" height="899" transform="translate(830 1333.5)" fill="#fff" stroke="#707070" stroke-width="1"/>
    </clipPath>
    <clipPath id="clip-path-2">
      <path id="Clip_2" data-name="Clip 2" d="M0,0H476.067V-484.817H0Z" transform="translate(0.308 -0.183)" fill="none"/>
    </clipPath>
    <clipPath id="clip-path-3">
      <path id="Clip_5" data-name="Clip 5" d="M0,0H550.539V-549.329H0Z" transform="translate(0 -0.651)" fill="none"/>
    </clipPath>
  </defs>
  <g id="Mask_Group_1" data-name="Mask Group 1" transform="translate(-830 -1333.5)" clip-path="url(#clip-path)">
    <g id="Group_7" data-name="Group 7" transform="translate(1505.888 2246.794) rotate(-65)" opacity="0.727">
      <g id="Group_3" data-name="Group 3" transform="translate(153.885 -235.352)">
        <path id="Clip_2-2" data-name="Clip 2" d="M0,0H476.067V-484.817H0Z" transform="translate(0.308 -0.183)" fill="none"/>
        <g id="Group_3-2" data-name="Group 3" clip-path="url(#clip-path-2)">
          <path id="Fill_1" data-name="Fill 1" d="M337.969-484.817a82.732,82.732,0,0,0-20.236,2.512,86.106,86.106,0,0,0-26.88,11.99L33.935-298.466C10.985-283.114-1.637-257.772.171-230.675a70.05,70.05,0,0,0,39.35,58.955L376.086-6.855A67.276,67.276,0,0,0,390.6-1.7,67.337,67.337,0,0,0,405.659,0a68.567,68.567,0,0,0,21.888-3.6,71.338,71.338,0,0,0,20.208-10.683c21.247-16.006,31.717-41.9,27.326-67.584L417.539-418.217a78.806,78.806,0,0,0-34.714-53.318,81.112,81.112,0,0,0-21.5-9.919A82.609,82.609,0,0,0,337.969-484.817ZM405.832-8.386a58.182,58.182,0,0,1-13.192-1.522A60.41,60.41,0,0,1,379.8-14.5L43.232-179.366a61.639,61.639,0,0,1-34.61-51.879c-1.6-24.019,9.615-46.5,30.005-60.141l256.921-171.85A77.74,77.74,0,0,1,319.8-474.056a74.411,74.411,0,0,1,18.183-2.257,74.116,74.116,0,0,1,20.951,3.015,72.671,72.671,0,0,1,19.272,8.892,70.387,70.387,0,0,1,30.989,47.63L466.731-80.425c3.853,22.518-5.366,45.255-24.06,59.337a64.02,64.02,0,0,1-17.784,9.506A58.743,58.743,0,0,1,405.832-8.386Z" transform="translate(0.308 -0.183)" fill="#f5f5f5"/>
        </g>
      </g>
      <g id="Group_6" data-name="Group 6" transform="translate(0.77 -0.987)">
        <path id="Clip_5-2" data-name="Clip 5" d="M0,0H550.539V-549.329H0Z" transform="translate(0 -0.651)" fill="none"/>
        <g id="Group_6-2" data-name="Group 6" clip-path="url(#clip-path-3)">
          <path id="Fill_4" data-name="Fill 4" d="M94.769-549.329h-.009a91.793,91.793,0,0,0-56,19.269c-26.6,20.3-40.987,52.983-38.477,87.434L26.461-83.4c2.4,32.978,21.142,61.014,50.127,75A85.391,85.391,0,0,0,94.5-2.094,82.038,82.038,0,0,0,112.869,0a81.971,81.971,0,0,0,46.916-14.864l355.9-247.129c25.076-17.411,38.156-47.675,34.138-78.982-4.049-31.543-24.549-57.682-53.5-68.218L127.152-543.517A94.491,94.491,0,0,0,94.769-549.329ZM112.843-14.161A68.217,68.217,0,0,1,97.567-15.9a71.112,71.112,0,0,1-14.91-5.254C58.269-32.92,42.5-56.575,40.468-84.434L14.288-443.662c-2.162-29.653,10.158-57.739,32.954-75.131a77.985,77.985,0,0,1,47.585-16.374,80.375,80.375,0,0,1,27.551,4.945L491.549-395.9c23.98,8.726,40.971,30.465,44.342,56.732,3.394,26.426-7.143,50.925-28.184,65.534L151.808-26.5A68.076,68.076,0,0,1,112.843-14.161Z" transform="translate(0 -0.65)" fill="#f5f5f5"/>
        </g>
      </g>
    </g>
  </g>
</svg>
