<svg xmlns="http://www.w3.org/2000/svg" xmlns:xlink="http://www.w3.org/1999/xlink" width="491.569" height="486.646" viewBox="0 0 491.569 486.646">
  <defs>
    <clipPath id="clip-path">
      <path id="Clip_2" data-name="Clip 2" d="M0,0H-395.874V402.835H0Z" transform="translate(-0.256 0.152)" fill="none"/>
    </clipPath>
  </defs>
  <g id="Group_3" data-name="Group 3" transform="matrix(0.259, 0.966, -0.966, 0.259, 491.782, 382.593)">
    <path id="Clip_2-2" data-name="Clip 2" d="M0,0H-395.874V402.835H0Z" transform="translate(-0.256 0.152)" fill="none"/>
    <g id="Group_3-2" data-name="Group 3" clip-path="url(#clip-path)">
      <path id="Fill_1" data-name="Fill 1" d="M-281.039,402.836a68.869,68.869,0,0,0,16.827-2.087,71.637,71.637,0,0,0,22.352-9.963L-28.218,248C-9.134,235.239,1.362,214.183-.142,191.669a58.2,58.2,0,0,0-32.721-48.985L-312.734,5.7a55.975,55.975,0,0,0-12.072-4.28A56.033,56.033,0,0,0-337.327,0a57.056,57.056,0,0,0-18.2,2.991,59.335,59.335,0,0,0-16.8,8.876,57.97,57.97,0,0,0-22.721,56.155L-347.2,347.5a65.475,65.475,0,0,0,28.867,44.3,67.476,67.476,0,0,0,17.875,8.242A68.749,68.749,0,0,0-281.039,402.836ZM-337.469,6.968A48.416,48.416,0,0,1-326.5,8.232a50.279,50.279,0,0,1,10.678,3.816L-35.95,149.036A51.21,51.21,0,0,1-7.17,192.142c1.333,19.957-7.994,38.637-24.95,49.971L-245.763,384.9a64.689,64.689,0,0,1-20.163,8.991,61.913,61.913,0,0,1-15.119,1.875,61.683,61.683,0,0,1-17.422-2.505,60.45,60.45,0,0,1-16.026-7.388A58.482,58.482,0,0,1-340.262,346.3L-388.111,66.825a50.915,50.915,0,0,1,20.007-49.3A50.741,50.741,0,0,1-337.469,6.968Z" transform="translate(-0.256 0.152)" fill="#e1e2e8"/>
    </g>
  </g>
</svg>
