<svg xmlns="http://www.w3.org/2000/svg" width="517.355" height="521.381" viewBox="0 0 517.355 521.381">
  <path id="Subtraction_1" data-name="Subtraction 1" d="M1155.97,2617.532c-.488,0-.989,0-1.488-.013a86.193,86.193,0,0,1-20.975-2.963,89.3,89.3,0,0,1-27.7-12.9L842.025,2418.983c-23.564-16.316-36.225-42.808-33.869-70.866a72.622,72.622,0,0,1,41.9-60.417l352.429-164.955a69.783,69.783,0,0,1,29.612-6.594c.4,0,.812,0,1.221.011a71.182,71.182,0,0,1,22.667,4.118,74.015,74.015,0,0,1,20.8,11.43,75.21,75.21,0,0,1,13.052,13.016,73.144,73.144,0,0,1,9.237,15.394,71.763,71.763,0,0,1,5.135,17.027,71.03,71.03,0,0,1,.746,17.915h-8.839a62.165,62.165,0,0,0-.5-15.923,62.931,62.931,0,0,0-4.465-15.157,64.337,64.337,0,0,0-8.164-13.713,67.365,67.365,0,0,0-29.9-21.757,60.97,60.97,0,0,0-19.732-3.652c-.326-.005-.664-.008-1-.008a60.663,60.663,0,0,0-12.724,1.352,62.982,62.982,0,0,0-13.418,4.533l-352.43,164.956a63.9,63.9,0,0,0-36.856,53.166c-2.087,24.868,9.165,48.371,30.1,62.87l263.787,182.67a80.594,80.594,0,0,0,24.99,11.646,77.36,77.36,0,0,0,40.653-.094,75.5,75.5,0,0,0,20.171-8.877,72.958,72.958,0,0,0,33.022-48.825l3.436-18.186h8.955l-3.746,19.826a81.677,81.677,0,0,1-36.99,54.655,84.253,84.253,0,0,1-22.5,9.9A85.97,85.97,0,0,1,1155.97,2617.532Z" transform="translate(-797.864 -2106.151)" fill="#0859a4" stroke="#0859a4" stroke-width="20"/>
</svg>
