<svg xmlns="http://www.w3.org/2000/svg" width="90" height="90" viewBox="0 0 90 90">
  <path id="Fill_1" data-name="Fill 1" d="M79.482,90.5H9.518A10.139,10.139,0,0,1-.5,80.268V10.731A10.137,10.137,0,0,1,9.517.5H79.482A10.138,10.138,0,0,1,89.5,10.733V80.268A10.138,10.138,0,0,1,79.482,90.5ZM22,62.482A30.409,30.409,0,0,0,37.809,67a33.326,33.326,0,0,0,9.019-1.295A28.269,28.269,0,0,0,64.9,51.007a5.5,5.5,0,0,0,1.206-2.372l-.029,0,.02-.035c.078-.136.158-.275.233-.416l.063-.242.047-.18c.114-.26.223-.519.334-.784a.517.517,0,0,0,.094-.378.8.8,0,0,1,.31-.816c.03-.144.063-.288.094-.422s.088-.24.132-.361c.052-.144.1-.286.157-.427a17.419,17.419,0,0,0,.966-5.513c-.013-2.528.434-4.467,2.66-5.717a4.131,4.131,0,0,0,1.07-1.011c.114-.137.233-.278.352-.408.6-.667.382-1.024.167-1.235a.546.546,0,0,0-.388-.164,1.33,1.33,0,0,0-.7.3,3.183,3.183,0,0,1-1.871.634,3.737,3.737,0,0,1-1.234-.225A10.412,10.412,0,0,0,72.5,25.991c-.246.065-.479.109-.683.149a2.627,2.627,0,0,0-.987.313c-1.46,1-2.6,1.7-3.941,1.7a5.546,5.546,0,0,1-3.273-1.318A9.167,9.167,0,0,0,58.076,25a11.14,11.14,0,0,0-5.6,1.6c-4,2.343-5.831,5.765-5.434,10.172a1.52,1.52,0,0,1-.205,1.165.8.8,0,0,1-.629.218,3.572,3.572,0,0,1-.62-.068l-.9-.163c-1.453-.261-2.955-.531-4.4-.922A29.358,29.358,0,0,1,26.2,28.644c-.528-.569-.929-.833-1.261-.833-.409,0-.724.4-1.024,1.3a10.437,10.437,0,0,0,.419,7.615,7.816,7.816,0,0,0,1.535,2.165,7.884,7.884,0,0,1,1.475,2.048,4.9,4.9,0,0,1-.627.04,6.433,6.433,0,0,1-2.706-.671,1.433,1.433,0,0,0-.572-.145.538.538,0,0,0-.471.227.986.986,0,0,0-.008.891,26.879,26.879,0,0,0,1.915,4.038A10.3,10.3,0,0,0,27.96,48.6a5.154,5.154,0,0,0,.827.405c.679.286,1.382.583,1.254,1.206a.706.706,0,0,1-.813.6,5.017,5.017,0,0,1-.548-.043l-.017,0a5.476,5.476,0,0,0-.6-.044,1.38,1.38,0,0,0-.7.156c1.549,4.934,5.775,6.364,9.7,7.113a22.141,22.141,0,0,1-6.772,3.465A24.383,24.383,0,0,1,23.016,62.5C22.683,62.5,22.341,62.493,22,62.482Z" transform="translate(0.5 -0.5)" fill="#737b7f"/>
</svg>
