<svg xmlns="http://www.w3.org/2000/svg" xmlns:xlink="http://www.w3.org/1999/xlink" width="607.344" height="664.779" viewBox="0 0 607.344 664.779">
  <defs>
    <clipPath id="clip-path">
      <path id="Clip_2" data-name="Clip 2" d="M0,0H351.312V-356.865H0Z" transform="translate(0.227 -0.135)" fill="none"/>
    </clipPath>
    <clipPath id="clip-path-2">
      <path id="Clip_5" data-name="Clip 5" d="M0,0H407.659V-405.5H0Z" transform="translate(0 -0.48)" fill="none"/>
    </clipPath>
  </defs>
  <g id="Group_7" data-name="Group 7" transform="matrix(0.485, -0.875, 0.875, 0.485, 410.46, 665.688)">
    <g id="Group_3" data-name="Group 3" transform="translate(114.262 -175.764)">
      <path id="Clip_2-2" data-name="Clip 2" d="M0,0H351.312V-356.865H0Z" transform="translate(0.227 -0.135)" fill="none"/>
      <g id="Group_3-2" data-name="Group 3" clip-path="url(#clip-path)">
        <path id="Fill_1" data-name="Fill 1" d="M249.4-356.865a61.212,61.212,0,0,0-14.933,1.849,63.636,63.636,0,0,0-19.836,8.825L25.042-219.7C8.106-208.4-1.209-189.742.126-169.8a51.562,51.562,0,0,0,29.038,43.4L277.531-5.046a49.726,49.726,0,0,0,10.712,3.791A49.81,49.81,0,0,0,299.355,0a50.715,50.715,0,0,0,16.152-2.649,52.688,52.688,0,0,0,14.913-7.863,51.316,51.316,0,0,0,20.164-49.747L308.12-307.841A57.991,57.991,0,0,0,282.5-347.088a59.917,59.917,0,0,0-15.863-7.3A61.109,61.109,0,0,0,249.4-356.865ZM299.481-6.173a43.044,43.044,0,0,1-9.735-1.12,44.678,44.678,0,0,1-9.476-3.38L31.9-132.029a45.365,45.365,0,0,1-25.54-38.186A48.9,48.9,0,0,1,28.5-214.483L218.1-340.979a57.436,57.436,0,0,1,17.893-7.965,55.035,55.035,0,0,1,13.418-1.661,54.821,54.821,0,0,1,15.461,2.219,53.689,53.689,0,0,1,14.222,6.545,51.8,51.8,0,0,1,22.868,35.059L344.422-59.2a45.067,45.067,0,0,1-17.754,43.677A45.086,45.086,0,0,1,299.481-6.173Z" transform="translate(0.227 -0.135)" fill="#f5f5f5"/>
      </g>
    </g>
    <g id="Group_6" data-name="Group 6" transform="translate(0.43 -0.618)">
      <path id="Clip_5-2" data-name="Clip 5" d="M0,0H407.659V-405.5H0Z" transform="translate(0 -0.48)" fill="none"/>
      <g id="Group_6-2" data-name="Group 6" clip-path="url(#clip-path-2)">
        <path id="Fill_4" data-name="Fill 4" d="M70.173-405.506h-.007A68.1,68.1,0,0,0,28.7-391.28C9-376.3-1.65-352.17.209-326.739L19.594-61.566c1.779,24.344,15.655,45.04,37.118,55.361A63.368,63.368,0,0,0,69.978-1.546,60.931,60.931,0,0,0,83.576,0a60.827,60.827,0,0,0,34.74-10.973L381.85-193.4c18.568-12.853,28.254-35.193,25.277-58.3-3-23.284-18.177-42.579-39.614-50.357L94.153-401.215a70.172,70.172,0,0,0-23.978-4.29h0ZM83.557-10.454A50.666,50.666,0,0,1,72.245-11.74,52.766,52.766,0,0,1,61.2-15.619C43.147-24.3,31.469-41.763,29.965-62.328L10.58-327.5c-1.6-21.889,7.521-42.622,24.4-55.461a57.861,57.861,0,0,1,35.236-12.087,59.692,59.692,0,0,1,20.4,3.65l273.361,99.157c17.756,6.442,30.337,22.489,32.834,41.879,2.513,19.507-5.289,37.592-20.869,48.377L112.41-19.562A50.516,50.516,0,0,1,83.557-10.454Z" transform="translate(0 -0.48)" fill="#f5f5f5"/>
      </g>
    </g>
  </g>
</svg>
