<svg xmlns="http://www.w3.org/2000/svg" width="30" height="30" viewBox="0 0 30 30">
  <path id="Fill_1" data-name="Fill 1" d="M27.5,30H26.42c-1.623-.612-2.382-1.548-2.389-2.946a2.89,2.89,0,0,1,1.812-2.724c.229-.116.55-.361.548-.543,0-.374,0-.755,0-1.124a22.7,22.7,0,0,0-.189-3.818,3.939,3.939,0,0,0-3.963-3.229c-.09,0-.181,0-.271.009a3.871,3.871,0,0,0-2.48,1.189,4.129,4.129,0,0,0-1.208,2.581c-.092,1.237-.106,2.5-.118,3.72v.008q0,.438-.01.875a5.786,5.786,0,0,1-5.707,5.517c-.113,0-.227,0-.341-.01A5.8,5.8,0,0,1,6.87,23.643c0-2.217,0-4.471-.009-6.651l0-1.332a1.289,1.289,0,0,0-.018-.181c-.006-.041-.013-.087-.019-.142-.062-.022-.124-.046-.19-.071a3.208,3.208,0,0,0-.442-.146A7.472,7.472,0,0,1,.078,8.147C-.036,6.147,0,4.105.034,2.131c.007-.39.014-.778.019-1.166A1.325,1.325,0,0,1,.362.3a3.514,3.514,0,0,0,.2-.3H3.813c.043.109.108.232.17.351.139.267.284.543.2.671A1.838,1.838,0,0,1,3.1,1.569a2.769,2.769,0,0,1-.548.046c-.142,0-.284-.006-.434-.012s-.311-.013-.471-.013c0,.708,0,1.4,0,2.091,0,1.459,0,2.832,0,4.228a5.75,5.75,0,0,0,1.708,4.017,6.421,6.421,0,0,0,4.12,1.892c.124.009.25.013.376.013a6.458,6.458,0,0,0,3.978-1.463,5.271,5.271,0,0,0,2.043-3.536,41.339,41.339,0,0,0,.081-4.96c-.017-.745-.035-1.515-.035-2.282h-.026c-.129,0-.256.006-.38.013s-.259.013-.384.013a2.081,2.081,0,0,1-.475-.046,1.89,1.89,0,0,1-1.09-.556c-.082-.121.068-.4.213-.662.065-.12.132-.244.178-.352h3.074c.058.118.133.237.2.353a1.638,1.638,0,0,1,.321.759c.044,2.256.048,4.612.01,7a7.092,7.092,0,0,1-1.765,4.43,7.6,7.6,0,0,1-4.15,2.544c-.263.056-.525.107-.829.167l-.432.085q0,.259,0,.521c0,.4,0,.805,0,1.211.01.721.008,1.456.007,2.166,0,1.672-.007,3.4.139,5.09A4,4,0,0,0,12.453,28c.069,0,.139,0,.209-.006a4.328,4.328,0,0,0,3.962-4.216c.024-.692.019-1.4.015-2.079,0-.714-.01-1.451.018-2.175a5.772,5.772,0,0,1,4.689-5.341A5.7,5.7,0,0,1,26,15.477a5.359,5.359,0,0,1,1.86,3.484c.1.914.114,1.852.127,2.76.009.632.018,1.286.057,1.926a1.3,1.3,0,0,0,.5.87,2.877,2.877,0,0,1,1.428,2.858,2.812,2.812,0,0,1-2.153,2.467,1.011,1.011,0,0,0-.215.1c-.034.019-.067.038-.1.056ZM27,25.648h0a1.438,1.438,0,0,0-1,.433,1.391,1.391,0,0,0-.421.969A1.376,1.376,0,0,0,27,28.407h.03a1.423,1.423,0,0,0,1.016-.428,1.354,1.354,0,0,0,.364-.985,1.429,1.429,0,0,0-1.388-1.345H27Z" transform="translate(0)" fill="#055aa5"/>
</svg>
