<svg xmlns="http://www.w3.org/2000/svg" xmlns:xlink="http://www.w3.org/1999/xlink" width="597.537" height="607.311" viewBox="0 0 597.537 607.311">
  <defs>
    <clipPath id="clip-path">
      <path id="Clip_2" data-name="Clip 2" d="M0,0H-597.537V607.311H0Z" fill="none"/>
    </clipPath>
  </defs>
  <g id="Group_3" data-name="Group 3" transform="translate(597.537)" clip-path="url(#clip-path)">
    <path id="Fill_1" data-name="Fill 1" d="M-424.2,607.311a104.077,104.077,0,0,0,25.4-3.146,108.187,108.187,0,0,0,33.739-15.019L-42.593,373.876C-13.787,354.646,2.056,322.9-.214,288.958c-2.15-32.176-20.614-59.783-49.39-73.85L-472.044,8.587a84.554,84.554,0,0,0-18.22-6.452A84.682,84.682,0,0,0-509.163,0a86.216,86.216,0,0,0-27.473,4.509A89.6,89.6,0,0,0-562,17.891c-26.668,20.05-39.81,52.49-34.3,84.658l72.224,421.333A98.7,98.7,0,0,0-480.5,590.672a101.889,101.889,0,0,0,26.98,12.425A103.885,103.885,0,0,0-424.2,607.311ZM-509.379,10.5a73.163,73.163,0,0,1,16.558,1.906A75.983,75.983,0,0,1-476.7,18.164L-54.263,224.686a77.2,77.2,0,0,1,43.44,64.985c2.012,30.087-12.067,58.25-37.66,75.335L-370.958,580.276a97.7,97.7,0,0,1-30.433,13.556,93.561,93.561,0,0,1-22.82,2.827,93.209,93.209,0,0,1-26.3-3.777,91.289,91.289,0,0,1-24.19-11.139,88.162,88.162,0,0,1-38.9-59.664l-72.222-421.335c-4.836-28.208,6.735-56.689,30.2-74.328A80.407,80.407,0,0,1-533.3,14.509,73.862,73.862,0,0,1-509.379,10.5Z" transform="translate(0 0)" fill="#cd202f"/>
  </g>
</svg>
