<svg xmlns="http://www.w3.org/2000/svg" xmlns:xlink="http://www.w3.org/1999/xlink" width="30.939" height="31.183" viewBox="0 0 30.939 31.183">
  <defs>
    <clipPath id="clip-path">
      <path id="Clip_17" data-name="Clip 17" d="M0,0H30.939V31.183H0Z" transform="translate(0.02 0.055)" fill="none"/>
    </clipPath>
  </defs>
  <g id="Group_18" data-name="Group 18" transform="translate(-0.02 -0.055)">
    <path id="Clip_17-2" data-name="Clip 17" d="M0,0H30.939V31.183H0Z" transform="translate(0.02 0.055)" fill="none"/>
    <g id="Group_18-2" data-name="Group 18" clip-path="url(#clip-path)">
      <path id="Fill_16" data-name="Fill 16" d="M30.936,15.613q0,5.659,0,11.317A4.134,4.134,0,0,1,27.9,31.005a4.044,4.044,0,0,1-1.069.161c-2.053.015-4.107,0-6.161.015-.36,0-.491-.081-.489-.474q.025-5.086,0-10.171c0-.385.113-.487.483-.479,1.058.023,2.117.01,3.175.007.581,0,.827-.237.893-.813q.176-1.537.367-3.072c.1-.834-.168-1.147-1.008-1.148-1.169,0-2.338.008-3.507-.012-.134,0-.379-.163-.38-.251a32.334,32.334,0,0,1,.056-3.43,1.546,1.546,0,0,1,1.706-1.494c.678-.027,1.358-.008,2.037-.015.7-.007.976-.272.982-.981.008-.875.009-1.751,0-2.626-.007-.556-.241-.889-.722-.883a34.54,34.54,0,0,0-4.436.166,5.128,5.128,0,0,0-4.418,4.635,41.463,41.463,0,0,0-.114,4.334c0,.422-.088.592-.544.567-.725-.04-1.453-.016-2.179-.008a.781.781,0,0,0-.87.846c-.008,1.13,0,2.26.027,3.389.014.568.277.792.842.8.774,0,1.548.014,2.322-.005.318-.008.4.108.4.414q-.015,5.157-.005,10.315c0,.283-.077.393-.374.392-3.665-.009-7.33.025-10.994-.021a4.107,4.107,0,0,1-3.92-4.072q-.012-11.509,0-23.017A4.134,4.134,0,0,1,4.042.007q11.421-.015,22.842,0a4.145,4.145,0,0,1,4.049,4.146c.012,3.82,0,7.641,0,11.461" transform="translate(0.02 0.055)" fill="#055aa5"/>
    </g>
  </g>
</svg>
