<svg xmlns="http://www.w3.org/2000/svg" width="523.333" height="531.298" viewBox="0 0 523.333 531.298">
  <g id="Group_1" data-name="Group 1" transform="translate(-804.129 -373.183)">
    <path id="Fill_1" data-name="Fill 1" d="M350.982,502.553a86.074,86.074,0,0,1-21.02-2.605,89.511,89.511,0,0,1-27.912-12.426L35.241,309.384C11.407,293.473-1.7,267.2.178,239.114A72.612,72.612,0,0,1,41.043,178L390.567,7.106A69.778,69.778,0,0,1,421.279,0a71.328,71.328,0,0,1,22.73,3.731A74.135,74.135,0,0,1,465,14.8c22.065,16.593,32.938,43.436,28.377,70.054l-59.76,348.657a81.67,81.67,0,0,1-36.051,55.268,84.31,84.31,0,0,1-22.323,10.282A85.937,85.937,0,0,1,350.982,502.553ZM421.458,8.694a60.535,60.535,0,0,0-13.7,1.577,62.849,62.849,0,0,0-13.337,4.76L44.9,185.928A63.887,63.887,0,0,0,8.954,239.7c-1.663,24.9,9.985,48.2,31.16,62.341L306.928,480.18A80.836,80.836,0,0,0,332.11,491.4a77.342,77.342,0,0,0,40.639-.786,75.525,75.525,0,0,0,20.015-9.217,72.953,72.953,0,0,0,32.183-49.372L484.7,83.366c4-23.343-5.573-46.911-24.987-61.507a66.513,66.513,0,0,0-18.468-9.85,61.11,61.11,0,0,0-19.789-3.316Z" transform="translate(822.852 383.353) rotate(0.974)" fill="#0859a4" stroke="#0859a4" stroke-width="20"/>
  </g>
</svg>
