<?xml version="1.0" encoding="UTF-8"?>
<svg width="176px" height="58px" viewBox="0 0 176 58" version="1.1" xmlns="http://www.w3.org/2000/svg" xmlns:xlink="http://www.w3.org/1999/xlink">
    <!-- Generator: Sketch 57.1 (83088) - https://sketch.com -->
    <title>Group 2</title>
    <desc>Created with Sketch.</desc>
    <g id="Symbols" stroke="none" stroke-width="1" fill="none" fill-rule="evenodd">
        <g id="Group-40" transform="translate(-635.000000, -21.000000)" fill="#CD202F">
            <g id="Group-2" transform="translate(635.000000, 21.000000)">
                <path d="M82.8688965,19.3333333 L74.2541105,19.3333333 L74.2312925,34.1895538 C74.226074,37.3280589 76.5934889,39.875 79.5154548,39.875 L82.8688965,39.875 L94.585034,39.875 L94.585034,36.3590474 L82.8688965,36.3590474 L82.8688965,19.3333333 Z" id="Fill-1"></path>
                <path d="M103.461033,19.3333333 C100.767873,19.3333333 98.5506192,21.4987436 98.2232108,24.2952747 L98.1999263,24.2952747 L98.1994511,24.5198547 C98.1863833,24.6847168 98.1766418,24.8503446 98.1768707,25.0190347 L98.189472,28.7899367 L98.1768707,34.1895538 C98.1716523,37.3280589 100.539067,39.875 103.461033,39.875 L106.814475,39.875 L118.530612,39.875 L118.530612,36.3590474 L106.814475,36.3590474 L106.814475,31.928697 L106.814475,31.1048968 L115.968606,31.1048968 L115.968606,27.588689 L106.814475,27.588689 L106.814475,24.2952747 L106.814475,22.8495411 L118.530612,22.8495411 L118.530612,19.3333333 L106.814475,19.3333333 L103.461033,19.3333333 Z" id="Fill-3"></path>
                <path d="M172.179528,21.4656769 L141.393353,1.52542779 C135.690422,-2.16865525 128.092647,1.18890178 126.929881,7.91725544 L124.839531,20.0126934 L145.927066,20.0126934 L145.927066,23.3293281 L138.14191,23.3293281 L138.14191,39.2972223 L130.032901,39.2972223 L130.032901,23.3293281 L124.265916,23.3293281 L119.848122,48.8927871 C118.755146,55.2169726 125.325192,60.0667504 130.983908,57.1123987 L171.507681,35.9560342 C177.186712,32.9908501 177.559562,24.9503339 172.179528,21.4656769 L172.179528,21.4656769 Z M157.964623,39.3280344 L154.591525,39.3280344 C151.651986,39.3280344 149.270526,36.925412 149.275776,33.9650423 L149.299207,19.952032 L157.964623,19.952032 L157.964623,39.3280344 Z" id="Fill-5"></path>
                <path d="M10.7755102,34.9105681 L8.83154202,34.9105681 L8.83154202,33.7900461 C8.19688236,34.5318663 6.94104252,35.0416667 5.71171236,35.0416667 C2.08887278,35.0416667 0,32.712564 0,29.1024053 C0,25.4185346 2.14009487,22.9583333 5.78966878,22.9583333 C7.50875401,22.9583333 9.1209019,23.5270044 10.218807,24.778625 L8.67338259,26.4960167 C7.91853073,25.5350392 6.92756302,25.1575742 5.78966878,25.1575742 C3.39818129,25.1575742 2.28702139,26.5979273 2.28702139,29.1024053 C2.28702139,31.4891419 3.34471262,32.8436626 5.71171236,32.8436626 C7.36407408,32.8436626 8.51297657,31.7807745 8.66012775,30.3245906 L8.8850107,30.0915814 L5.16848861,30.0915814 L5.16848861,27.8935773 L10.7755102,27.8935773 L10.7755102,34.9105681 Z" id="Fill-7"></path>
                <path d="M26.3401361,35.0416667 L23.735251,35.0416667 L22.2214513,31.8496754 C21.7711584,30.9100493 21.1442711,30.4918181 19.8624544,30.4918181 L17.6663787,30.4918181 L17.8846885,30.7153816 L17.8846885,35.0416667 L15.5646259,35.0416667 L15.5646259,22.9583333 L20.9120562,22.9583333 C23.1081319,22.9583333 25.1387371,24.1516864 25.1387371,26.7333136 C25.1387371,28.0158893 24.2404689,29.179079 23.2573798,29.6715779 L23.2573798,29.7014878 C23.6249374,29.8799331 24.0752302,30.3283277 24.3760435,30.9539002 L26.3401361,35.0416667 Z M20.9120562,25.2256534 L17.6663787,25.2256534 L17.8846885,25.4494705 L17.8846885,28.0899035 L17.6663787,28.3286755 L20.7743959,28.3286755 C22.1938729,28.3286755 22.7797403,27.5824497 22.7797403,26.7921194 C22.7797403,25.7635241 22.1250427,25.2256534 20.9120562,25.2256534 L20.9120562,25.2256534 Z" id="Fill-9"></path>
                <path d="M40.707483,29.3983544 C40.707483,32.9632632 38.9830553,35.0416667 35.334026,35.0416667 C31.6705784,35.0416667 29.9319728,32.9930584 29.9319728,29.3983544 L29.9319728,22.9583333 L32.3352617,22.9583333 L32.3352617,29.3833316 C32.3352617,31.6380025 33.1282677,32.802269 35.3196077,32.802269 C37.4823515,32.802269 38.3041941,31.6380025 38.3041941,29.3833316 L38.3041941,22.9583333 L40.707483,22.9583333 L40.707483,29.3983544 Z" id="Fill-11"></path>
                <path d="M49.774913,30.8198127 L46.3721233,30.8198127 L46.5874261,31.0446437 L46.5874261,35.0416667 L44.2993197,35.0416667 L44.2993197,22.9583333 L49.774913,22.9583333 C52.3574036,22.9583333 53.877551,24.585126 53.877551,26.8815956 C53.877551,29.0901098 52.3574036,30.8198127 49.774913,30.8198127 M49.774913,25.2259069 L46.3721233,25.2259069 L46.5874261,25.4494705 L46.5874261,28.3134671 L46.3721233,28.5524926 L49.774913,28.5524926 C51.052559,28.5524926 51.5510467,27.8511315 51.5510467,26.8815956 C51.5510467,25.8679552 51.052559,25.2259069 49.774913,25.2259069" id="Fill-13"></path>
                <path d="M63.4570022,35.0416667 C59.537069,35.0416667 57.4693878,32.5812684 57.4693878,29.0730922 C57.4693878,25.5646686 59.537069,22.9583333 63.4570022,22.9583333 C67.4035286,22.9583333 69.4421769,25.5646686 69.4421769,29.0730922 C69.4421769,32.5812684 67.3188695,35.0416667 63.4570022,35.0416667 M63.4570022,25.1723702 C60.9855437,25.1723702 59.953045,26.8026593 59.953045,29.0730922 C59.953045,31.2710513 60.9855437,32.8291139 63.4570022,32.8291139 C65.9550539,32.8291139 66.9585197,31.2710513 66.9585197,29.0730922 C66.9585197,26.860292 65.9550539,25.1723702 63.4570022,25.1723702" id="Fill-15"></path>
            </g>
        </g>
    </g>
</svg>