<svg xmlns="http://www.w3.org/2000/svg" xmlns:xlink="http://www.w3.org/1999/xlink" width="257.811" height="107.994" viewBox="0 0 257.811 107.994">
  <defs>
    <clipPath id="clip-path">
      <path id="Clip_8" data-name="Clip 8" d="M0,0H106.546V107.994H0Z" transform="translate(0.265 0.006)" fill="none"/>
    </clipPath>
  </defs>
  <g id="Group_12" data-name="Group 12" transform="translate(0 -0.006)">
    <path id="Fill_1" data-name="Fill 1" d="M28.415,15.168h0l-1.1,0c-2.44,0-4.42,1.161-4.42,3.612V21.59H30.1v5.475a8.307,8.307,0,0,1-3.217,1.564A17.063,17.063,0,0,1,22,29.3a10.114,10.114,0,0,1-7.109-2.639A9.238,9.238,0,0,1,12.021,19.5a9.793,9.793,0,0,1,3.3-7.6q3.3-2.978,9.2-2.978a26.341,26.341,0,0,1,13.026,3.318L40.426,4Q34.148,0,23.54,0,12.994,0,6.5,5.549A17.583,17.583,0,0,0,0,19.5,17.321,17.321,0,0,0,5.633,32.764Q11.268,38,20.715,38q7.5,0,11.174-4.188H32.2l1.883,3.509H43V15.168Z" transform="translate(104 36)" fill="#cd202f"/>
    <path id="Fill_3" data-name="Fill 3" d="M46.043,0H42.089a5.7,5.7,0,0,0-3.311,1.164L27.5,11.833h0L16.222,1.164A5.7,5.7,0,0,0,12.911,0H8.957C4,0-.009,4.464,0,9.964L.039,36h14.6V9.986l10.635,9.345.278.223,1.309,1.051h1.274l1.309-1.051.278-.223L40.359,9.986V36h14.6L55,9.964C55.008,4.464,51,0,46.043,0" transform="translate(0 37)" fill="#cd202f"/>
    <path id="Fill_5" data-name="Fill 5" d="M4.574,0,0,12H9Z" transform="translate(168 46)" fill="#cd202f"/>
    <g id="Group_9" data-name="Group 9" transform="translate(151)">
      <path id="Clip_8-2" data-name="Clip 8" d="M0,0H106.546V107.994H0Z" transform="translate(0.265 0.006)" fill="none"/>
      <g id="Group_9-2" data-name="Group 9" clip-path="url(#clip-path)">
        <path id="Fill_7" data-name="Fill 7" d="M14.594,107.994h0a14.662,14.662,0,0,1-6.259-1.425A15,15,0,0,1,3.327,102.7a14.065,14.065,0,0,1-3.1-11.665L3.3,73.562H9.636l3.3-7.948H28.855l3.36,7.948H46.158L31.951,44.072A11.769,11.769,0,0,0,27.576,39.2a11.923,11.923,0,0,0-6.326-1.812H20.6A11.922,11.922,0,0,0,14.275,39.2,11.765,11.765,0,0,0,9.9,44.072L7.667,48.708l.926-5.27,1.085-6.176,3.958-22.522A17.544,17.544,0,0,1,19.978,4,18.255,18.255,0,0,1,31.356,0,17.973,17.973,0,0,1,41.022,2.84l58.29,37.128a15.532,15.532,0,0,1-1.272,26.981L21.312,106.341A14.588,14.588,0,0,1,14.594,107.994ZM39.146,37.385h0v5.971H53.819V73.562H68.975V43.357H83.73V37.385Z" transform="translate(0.265 0.006)" fill="#cd202f"/>
      </g>
    </g>
    <path id="Fill_10" data-name="Fill 10" d="M9.866,0A9.89,9.89,0,0,0,.087,8.7H.044V9.09C.018,9.378,0,9.669,0,9.964l.024,6.609L0,26.036A9.907,9.907,0,0,0,9.866,36H38V29.838H16.127V20.63h17.09V14.468H16.127V6.163H38V0H9.866Z" transform="translate(62 37)" fill="#cd202f"/>
  </g>
</svg>
