<svg xmlns="http://www.w3.org/2000/svg" xmlns:xlink="http://www.w3.org/1999/xlink" width="726.051" height="746.888" viewBox="0 0 726.051 746.888">
  <defs>
    <clipPath id="clip-path">
      <path id="Clip_2" data-name="Clip 2" d="M0,0H-450.607V458.53H0Z" transform="translate(-0.291 0.173)" fill="none"/>
    </clipPath>
    <clipPath id="clip-path-2">
      <path id="Clip_5" data-name="Clip 5" d="M0,0H-523.219V521.457H0Z" transform="translate(0 0.618)" fill="none"/>
    </clipPath>
  </defs>
  <g id="Group_20" data-name="Group 20" transform="translate(311.813 -228.217) rotate(39)" opacity="0.249">
    <g id="Group_7" data-name="Group 7" transform="matrix(0.891, -0.454, 0.454, 0.891, 533.724, 0.66)" opacity="0.697">
      <g id="Group_3" data-name="Group 3" transform="translate(-146.096 225.39)">
        <path id="Clip_2-2" data-name="Clip 2" d="M0,0H-450.607V458.53H0Z" transform="translate(-0.291 0.173)" fill="none"/>
        <g id="Group_3-2" data-name="Group 3" clip-path="url(#clip-path)">
          <path id="Fill_1" data-name="Fill 1" d="M-319.894,458.53a78.353,78.353,0,0,0,19.154-2.376A81.525,81.525,0,0,0-275.3,444.815L-32.119,282.283C-10.4,267.764,1.55,243.8-.162,218.168A66.252,66.252,0,0,0-37.407,162.41L-355.972,6.484a63.716,63.716,0,0,0-13.74-4.871A63.784,63.784,0,0,0-383.965,0a64.945,64.945,0,0,0-20.717,3.4,67.54,67.54,0,0,0-19.128,10.1c-20.11,15.138-30.021,39.63-25.864,63.919l54.465,318.114a74.525,74.525,0,0,0,32.857,50.427A76.807,76.807,0,0,0-342,455.349,78.251,78.251,0,0,0-319.894,458.53Zm-64.233-450.6A55.12,55.12,0,0,1-371.64,9.371a57.215,57.215,0,0,1,12.155,4.343L-40.92,169.642A58.292,58.292,0,0,1-8.161,218.707c1.516,22.716-9.1,43.979-28.4,56.879l-243.18,162.532a73.625,73.625,0,0,1-22.951,10.235,70.465,70.465,0,0,1-17.209,2.135,70.206,70.206,0,0,1-19.831-2.852,68.811,68.811,0,0,1-18.242-8.41,66.568,66.568,0,0,1-29.332-45.047L-441.77,76.064c-3.647-21.3,5.079-42.8,22.773-56.12a60.617,60.617,0,0,1,16.833-8.99A55.644,55.644,0,0,1-384.127,7.932Z" transform="translate(-0.291 0.173)" fill="#e1e2e8"/>
        </g>
      </g>
      <g id="Group_6" data-name="Group 6" transform="translate(0 0)">
        <path id="Clip_5-2" data-name="Clip 5" d="M0,0H-523.219V521.457H0Z" transform="translate(0 0.618)" fill="none"/>
        <g id="Group_6-2" data-name="Group 6" clip-path="url(#clip-path-2)">
          <path id="Fill_4" data-name="Fill 4" d="M-90.073,521.457h.015a87.3,87.3,0,0,0,53.222-18.292c25.283-19.267,38.953-50.294,36.568-83l-24.881-341C-27.431,47.866-45.24,21.253-72.787,7.98A81.221,81.221,0,0,0-89.814,1.988,78.056,78.056,0,0,0-107.268,0a77.965,77.965,0,0,0-44.588,14.11L-490.1,248.7c-23.83,16.528-36.262,45.257-32.443,74.975,3.848,29.942,23.331,54.755,50.845,64.756L-120.842,515.94A89.871,89.871,0,0,0-90.073,521.457Zm-17.17-508.015A64.912,64.912,0,0,1-92.725,15.1a67.628,67.628,0,0,1,14.17,4.988c23.178,11.166,38.166,33.621,40.1,60.066l24.88,341c2.055,28.149-9.653,54.81-31.319,71.32a74.171,74.171,0,0,1-45.223,15.543,76.476,76.476,0,0,1-26.184-4.694L-467.157,375.81c-22.79-8.283-38.938-28.919-42.142-53.854-3.225-25.084,6.788-48.34,26.785-62.209L-144.275,25.156A64.747,64.747,0,0,1-107.243,13.442Z" transform="translate(0 0.617)" fill="#e1e2e8"/>
        </g>
      </g>
    </g>
  </g>
</svg>
