<svg xmlns="http://www.w3.org/2000/svg" xmlns:xlink="http://www.w3.org/1999/xlink" width="679.417" height="797.195" viewBox="0 0 679.417 797.195">
  <defs>
    <clipPath id="clip-path">
      <path id="Clip_2" data-name="Clip 2" d="M0,0H-401.214V406.846H0Z" transform="translate(-0.259 0.153)" fill="none"/>
    </clipPath>
    <clipPath id="clip-path-2">
      <path id="Clip_5" data-name="Clip 5" d="M0,0H-465.61V462.435H0Z" transform="translate(0 0.548)" fill="none"/>
    </clipPath>
  </defs>
  <g id="Group_7" data-name="Group 7" transform="translate(299.461 -1.075) rotate(-50)" opacity="0.501">
    <g id="Group_3" data-name="Group 3" transform="translate(-131.578 199.622)">
      <path id="Clip_2-2" data-name="Clip 2" d="M0,0H-401.214V406.846H0Z" transform="translate(-0.259 0.153)" fill="none"/>
      <g id="Group_3-2" data-name="Group 3" clip-path="url(#clip-path)">
        <path id="Fill_1" data-name="Fill 1" d="M-284.829,406.847a70.017,70.017,0,0,0,17.054-2.108,72.734,72.734,0,0,0,22.654-10.062L-28.6,250.465C-9.258,237.582,1.38,216.316-.144,193.577A58.783,58.783,0,0,0-33.306,144.1L-316.953,5.753a56.858,56.858,0,0,0-12.234-4.322A56.979,56.979,0,0,0-341.877,0a58.009,58.009,0,0,0-18.446,3.021,60.206,60.206,0,0,0-17.031,8.965c-17.906,13.432-26.73,35.164-23.029,56.714l48.495,282.257A66.11,66.11,0,0,0-322.632,395.7a68.485,68.485,0,0,0,18.116,8.324A69.9,69.9,0,0,0-284.829,406.847ZM-342.022,7.038A49.242,49.242,0,0,1-330.9,8.315a51.089,51.089,0,0,1,10.823,3.853L-36.435,150.521A51.718,51.718,0,0,1-7.267,194.055c1.35,20.156-8.1,39.023-25.287,50.468L-249.079,388.735a65.656,65.656,0,0,1-20.434,9.081,62.966,62.966,0,0,1-15.324,1.894,62.709,62.709,0,0,1-17.657-2.53,61.356,61.356,0,0,1-16.242-7.462,59.05,59.05,0,0,1-26.117-39.969L-393.346,67.49c-3.247-18.9,4.523-37.977,20.277-49.793A51.541,51.541,0,0,1-342.022,7.038Z" transform="translate(-0.259 0.153)" fill="#fff"/>
      </g>
    </g>
    <g id="Group_6" data-name="Group 6" transform="translate(-0.935 0.011)">
      <path id="Clip_5-2" data-name="Clip 5" d="M0,0H-465.61V462.435H0Z" transform="translate(0 0.548)" fill="none"/>
      <g id="Group_6-2" data-name="Group 6" clip-path="url(#clip-path-2)">
        <path id="Fill_4" data-name="Fill 4" d="M-80.15,462.435h.009A77.857,77.857,0,0,0-32.78,446.215c22.5-17.087,34.664-44.6,32.541-73.6L-22.379,70.21C-24.411,42.449-40.259,18.847-64.773,7.077A72.446,72.446,0,0,0-79.925,1.763,69.7,69.7,0,0,0-95.457,0a69.548,69.548,0,0,0-39.679,12.514l-301,208.037C-457.34,235.208-468.4,260.685-465,287.04c3.424,26.553,20.762,48.558,45.247,57.427l312.22,113.076A80.26,80.26,0,0,0-80.15,462.435ZM-95.435,11.921a57.952,57.952,0,0,1,12.92,1.467,60.326,60.326,0,0,1,12.61,4.423c20.626,9.9,33.964,29.815,35.681,53.267l22.141,302.4c1.828,24.962-8.591,48.606-27.871,63.247A66.151,66.151,0,0,1-80.2,450.514a68.267,68.267,0,0,1-23.3-4.162L-415.721,333.274c-20.281-7.346-34.65-25.646-37.5-47.758-2.871-22.245,6.04-42.869,23.836-55.168l301-208.038A57.754,57.754,0,0,1-95.435,11.921Z" transform="translate(0 0.548)" fill="#fff"/>
      </g>
    </g>
  </g>
</svg>
