<svg id="Group_32" data-name="Group 32" xmlns="http://www.w3.org/2000/svg" width="26" height="22" viewBox="0 0 26 22">
  <path id="Path" d="M24.818,2H1.182A1.1,1.1,0,0,1,0,1,1.1,1.1,0,0,1,1.182,0H24.818A1.1,1.1,0,0,1,26,1a1.1,1.1,0,0,1-1.182,1Z" transform="translate(0 10)" fill="#cd202f"/>
  <path id="Path-2" data-name="Path" d="M24.818,2H1.182A1.1,1.1,0,0,1,0,1,1.1,1.1,0,0,1,1.182,0H24.818A1.1,1.1,0,0,1,26,1a1.1,1.1,0,0,1-1.182,1Z" fill="#cd202f"/>
  <path id="Path-3" data-name="Path" d="M24.818,2H1.182A1.1,1.1,0,0,1,0,1,1.1,1.1,0,0,1,1.182,0H24.818A1.1,1.1,0,0,1,26,1,1.1,1.1,0,0,1,24.818,2Z" transform="translate(0 20)" fill="#cd202f"/>
</svg>
