<?xml version="1.0" encoding="UTF-8"?>
<svg width="704px" height="848px" viewBox="0 0 704 848" version="1.1" xmlns="http://www.w3.org/2000/svg" xmlns:xlink="http://www.w3.org/1999/xlink">
    <!-- Generator: Sketch 57.1 (83088) - https://sketch.com -->
    <title>Fill 1</title>
    <desc>Created with Sketch.</desc>
    <g id="Page-1" stroke="none" stroke-width="1" fill="none" fill-rule="evenodd">
        <path d="M498.908301,860.573887 C529.50382,840.603257 549.800059,809.492294 556.059602,772.972818 L650.793455,220.349082 C658.023787,178.15788 640.788063,135.609717 605.80713,109.309925 C571.057453,83.1892158 525.841078,78.5114538 487.814083,97.1071202 L-66.2861514,367.98103 C-104.031304,386.431267 -128.249243,422.641857 -131.068868,464.843876 C-134.046276,509.364343 -113.264642,551.001473 -75.4833556,576.223168 L347.491679,858.571536 C361.141747,867.686682 376.029992,874.313912 391.745697,878.270539 C402.726696,881.037293 413.075562,880.487925 424.210731,880.487925 C451.149325,882.397835 476.910169,874.934088 498.908301,860.573887 Z" id="Fill-1" fill="#0859A4" transform="translate(260.533996, 483.313227) rotate(-66.000000) translate(-260.533996, -483.313227) "></path>
    </g>
</svg>